<svg xmlns="http://www.w3.org/2000/svg" viewBox="0 0 49.74 46.93"><defs><style>
      .cls-1 {
        opacity: .88;
      }

      .cls-1, .cls-2, .cls-3, .cls-4, .cls-5, .cls-6, .cls-7, .cls-8, .cls-9, .cls-10, .cls-11, .cls-12, .cls-13, .cls-14, .cls-15, .cls-16, .cls-17, .cls-18, .cls-19, .cls-20, .cls-21, .cls-22, .cls-23, .cls-24, .cls-25, .cls-26, .cls-27, .cls-28, .cls-29, .cls-30, .cls-31, .cls-32, .cls-33, .cls-34, .cls-35, .cls-36, .cls-37, .cls-38, .cls-39, .cls-40, .cls-41, .cls-42, .cls-43, .cls-44, .cls-45, .cls-46, .cls-47, .cls-48, .cls-49, .cls-50, .cls-51, .cls-52, .cls-53, .cls-54, .cls-55, .cls-56, .cls-57, .cls-58, .cls-59, .cls-60, .cls-61, .cls-62, .cls-63, .cls-64, .cls-65 {
        fill: #117d89;
      }

      .cls-2 {
        opacity: .47;
      }

      .cls-3 {
        opacity: .58;
      }

      .cls-4 {
        opacity: .49;
      }

      .cls-6 {
        opacity: .4;
      }

      .cls-7 {
        opacity: .81;
      }

      .cls-8 {
        opacity: .42;
      }

      .cls-9 {
        opacity: .53;
      }

      .cls-10 {
        opacity: .71;
      }

      .cls-11 {
        opacity: .68;
      }

      .cls-12 {
        opacity: .39;
      }

      .cls-13 {
        opacity: .64;
      }

      .cls-14 {
        opacity: .54;
      }

      .cls-15 {
        opacity: .9;
      }

      .cls-16 {
        opacity: .92;
      }

      .cls-17 {
        opacity: .6;
      }

      .cls-18 {
        opacity: .72;
      }

      .cls-19 {
        opacity: .33;
      }

      .cls-20 {
        opacity: .73;
      }

      .cls-21 {
        opacity: .59;
      }

      .cls-22 {
        opacity: .86;
      }

      .cls-23 {
        opacity: .93;
      }

      .cls-24 {
        opacity: .82;
      }

      .cls-25 {
        opacity: .6;
      }

      .cls-26 {
        opacity: .82;
      }

      .cls-27 {
        opacity: .74;
      }

      .cls-28 {
        opacity: .97;
      }

      .cls-29 {
        opacity: .92;
      }

      .cls-30 {
        opacity: .59;
      }

      .cls-31 {
        opacity: .5;
      }

      .cls-32 {
        opacity: .95;
      }

      .cls-33 {
        opacity: .98;
      }

      .cls-34 {
        opacity: .88;
      }

      .cls-35 {
        opacity: .52;
      }

      .cls-36 {
        opacity: .81;
      }

      .cls-37 {
        opacity: .49;
      }

      .cls-38 {
        opacity: .53;
      }

      .cls-39 {
        opacity: .98;
      }

      .cls-40 {
        opacity: .78;
      }

      .cls-41 {
        opacity: .56;
      }

      .cls-42 {
        opacity: .39;
      }

      .cls-43 {
        opacity: .44;
      }

      .cls-44 {
        opacity: .61;
      }

      .cls-45 {
        opacity: .87;
      }

      .cls-46 {
        opacity: .81;
      }

      .cls-47 {
        opacity: .87;
      }

      .cls-48 {
        opacity: .82;
      }

      .cls-49 {
        opacity: .68;
      }

      .cls-50 {
        opacity: .34;
      }

      .cls-51 {
        opacity: .66;
      }

      .cls-52 {
        opacity: .9;
      }

      .cls-53 {
        opacity: .83;
      }

      .cls-54 {
        opacity: .84;
      }

      .cls-55 {
        opacity: .37;
      }

      .cls-56 {
        opacity: .73;
      }

      .cls-57 {
        opacity: .94;
      }

      .cls-58 {
        opacity: .79;
      }

      .cls-59 {
        opacity: .72;
      }

      .cls-60 {
        opacity: .74;
      }

      .cls-61 {
        opacity: .6;
      }

      .cls-62 {
        opacity: .42;
      }

      .cls-63 {
        opacity: .78;
      }

      .cls-64 {
        opacity: .81;
      }

      .cls-65 {
        opacity: .93;
      }
    </style></defs><path class="cls-3" d="M13.41,19.08c-2.66-3.27-4.08-5.97-4.11-6.02-.03-.05,0-.12.05-.14.05-.03.12,0,.14.05.05.1,5.11,9.7,14.11,14.66.05.03.07.09.04.15-.03.05-.09.07-.15.04-4.29-2.37-7.69-5.78-10.09-8.72Z"/><path class="cls-39" d="M18.32,22.72C11.9,14.82,10.13,5.59,10.11,5.48c-.01-.06.03-.11.09-.12.06-.01.11.03.12.09.03.14,2.67,13.95,13.29,22.18.05.04.05.1.02.15-.04.05-.1.06-.15.02-1.99-1.54-3.7-3.27-5.16-5.08Z"/><path class="cls-59" d="M23.51,27.67s0,0,0,0c-5.28-7.02-7.38-13.01-8.21-16.8-.9-4.11-.55-6.6-.55-6.62,0-.06.06-.1.12-.09.06,0,.1.06.09.12-.01.1-1.33,9.9,8.72,23.26.04.05.03.11-.02.15-.05.03-.11.03-.15-.02Z"/><path class="cls-10" d="M23.51,27.67s0-.01-.01-.02c-6.63-13.69-3.62-21.49-3.59-21.57.02-.05.08-.08.14-.06.05.02.08.08.06.14-.03.08-3.01,7.8,3.58,21.4.03.05,0,.12-.05.14-.05.02-.1,0-.13-.03Z"/><path class="cls-20" d="M15.56,20.19c-4.28-5.27-5.69-9.56-5.71-9.62-.02-.06.01-.12.07-.13.06-.02.12.01.13.07.03.09,3.01,9.17,13.56,17.12.05.04.06.1.02.15-.04.05-.1.06-.15.02-3.35-2.53-5.95-5.17-7.92-7.6Z"/><path class="cls-45" d="M21.04,24.98c-3.88-4.77-6.05-10.32-7.23-14.43-1.53-5.33-1.76-9.48-1.76-9.52,0-.06.04-.11.1-.11.06,0,.11.04.11.1,0,.04.24,4.17,1.76,9.48,1.4,4.9,4.21,11.82,9.65,17.03.04.04.04.11,0,.15-.04.04-.11.04-.15,0-.9-.86-1.72-1.76-2.48-2.7Z"/><path class="cls-38" d="M23.51,27.67s0,0,0-.01c-6.88-10.89-6.67-19.31-6.67-19.4,0-.06.05-.11.11-.1.06,0,.1.05.1.11,0,.08-.21,8.45,6.63,19.28.03.05.02.12-.03.15-.05.03-.11.02-.14-.02Z"/><path class="cls-8" d="M23.47,27.74s-.01-.02-.02-.03c-4.69-11.56-.5-25.8-.46-25.94.02-.06.08-.09.13-.07.06.02.09.08.07.13-.04.14-4.22,14.3.45,25.8.02.05,0,.12-.06.14-.04.02-.09,0-.12-.03Z"/><path class="cls-49" d="M23.51,27.67s-.02-.03-.02-.04c-1.99-8.45-1.62-14.35-.95-17.81.73-3.76,1.91-5.49,1.96-5.56.03-.05.1-.06.15-.03.05.03.06.1.03.15-.05.07-4.78,7.13-.98,23.2.01.06-.02.11-.08.13-.04,0-.08,0-.11-.04Z"/><path class="cls-48" d="M23.51,27.67s-.02-.03-.02-.05c-1.23-8.43-.3-14.31.71-17.76,1.09-3.75,2.49-5.52,2.51-5.54.04-.05.1-.05.15-.02.05.04.05.1.02.15-.06.07-5.51,7.09-3.17,23.13,0,.06-.03.11-.09.12-.04,0-.08-.01-.1-.04Z"/><path class="cls-36" d="M23.46,27.77s-.02-.04-.02-.06c-.44-12.11,4.4-20.22,4.45-20.3.03-.05.1-.07.15-.04.05.03.07.1.04.15-.05.08-4.86,8.14-4.42,20.18,0,.06-.04.11-.1.11-.03,0-.07-.01-.09-.04Z"/><path class="cls-23" d="M23.46,27.77s-.03-.05-.02-.07c.79-12.09,7.71-21.87,7.77-21.96.03-.05.1-.06.15-.02.05.03.06.1.02.15-.07.1-6.95,9.83-7.74,21.85,0,.06-.05.1-.11.1-.03,0-.06-.02-.08-.04Z"/><path class="cls-21" d="M23.46,27.77s-.03-.06-.02-.1c3.89-13.52,9.38-18.78,9.43-18.83.04-.04.11-.04.15,0,.04.04.04.11,0,.15-.05.05-5.5,5.27-9.37,18.73-.02.06-.08.09-.13.07-.02,0-.04-.02-.05-.04Z"/><path class="cls-18" d="M23.51,27.67s-.03-.07-.02-.1c4.08-12.24,13.67-19.12,13.76-19.19.05-.03.11-.02.15.03.03.05.02.11-.03.15-.1.07-9.63,6.91-13.68,19.08-.02.06-.08.09-.13.07-.02,0-.04-.02-.05-.03Z"/><path class="cls-26" d="M23.46,27.77s-.03-.08-.01-.12c4.05-7.36,8.61-11.63,11.71-13.92,3.37-2.48,5.82-3.24,5.85-3.24.06-.02.12.02.13.07.02.06-.01.12-.07.13-.1.03-9.72,3.06-17.43,17.06-.03.05-.09.07-.14.04-.01,0-.02-.02-.03-.03Z"/><path class="cls-12" d="M23.48,27.79l.13-.17-.06.09-.08-.07s.03-.03.07-.08c1.98-2.28,8.91-10,15.08-13.55.05-.03.12-.01.15.04.03.05.01.12-.04.15-6.14,3.53-13.06,11.23-15.03,13.5-.09.1-.13.15-.21.1Z"/><path class="cls-15" d="M38.34,14.29c-.18-.29,1.44-1.69,1.92-1.03.53.74-1.68,1.41-1.92,1.03Z"/><path class="cls-42" d="M39.99,11c-.16-.31,1.58-1.56,2-.86.46.78-1.79,1.26-2,.86Z"/><path class="cls-62" d="M36.58,9c-.22-.27,1.23-1.84,1.78-1.24.61.67-1.5,1.59-1.78,1.24Z"/><path class="cls-46" d="M32.41,9.49c-.26-.23.92-2.02,1.55-1.52.71.56-1.22,1.82-1.55,1.52Z"/><path class="cls-2" d="M30.68,6.71c-.3-.17.49-2.17,1.21-1.8.81.41-.82,2.03-1.21,1.8Z"/><path class="cls-65" d="M27.49,8.43c-.32-.13.22-2.21.98-1.94.86.3-.57,2.11-.98,1.94Z"/><path class="cls-55" d="M26.22,5.27c-.3-.16.42-2.18,1.16-1.84.83.38-.76,2.05-1.16,1.84Z"/><path class="cls-30" d="M24.2,5.01c-.31-.14.25-2.21,1.01-1.92.85.32-.6,2.1-1.01,1.92Z"/><path class="cls-57" d="M22.77,3.04c-.33-.09-.08-2.22.72-2.05.89.19-.29,2.17-.72,2.05Z"/><path class="cls-25" d="M19.79,6.87c-.33-.08-.13-2.22.67-2.07.89.17-.24,2.18-.67,2.07Z"/><path class="cls-17" d="M16.94,9.3c-.34.02-.79-2.07.02-2.17.9-.11.43,2.14-.02,2.17Z"/><path class="cls-58" d="M14.78,5.38c-.34.01-.74-2.09.07-2.17.91-.09.38,2.15-.07,2.17Z"/><path class="cls-1" d="M12.22,2.18c-.34.05-.94-2.01-.15-2.17.89-.18.59,2.11.15,2.17Z"/><path class="cls-44" d="M10.46,6.62c-.33.08-1.15-1.9-.38-2.14.87-.27.81,2.03.38,2.14Z"/><path class="cls-64" d="M10.43,11.67c-.31.16-1.55-1.59-.85-2,.78-.46,1.25,1.79.85,2Z"/><path class="cls-24" d="M9.98,13.94c-.29.18-1.67-1.46-1.01-1.92.74-.52,1.39,1.69,1.01,1.92Z"/><path class="cls-29" d="M29.98,39.29c-2.4-2.95-5.04-6.97-6.48-11.66-.02-.06.01-.12.07-.13.06-.02.12.01.13.07,3.02,9.82,11.39,16.74,11.47,16.8.05.04.05.1.02.15-.04.05-.1.05-.15.02-.04-.04-2.4-1.98-5.06-5.25Z"/><path class="cls-47" d="M27.41,33.73c-1.47-1.8-2.81-3.83-3.92-6.09-.03-.05,0-.12.05-.14.05-.03.12,0,.14.05,5.89,12.08,18.88,17.48,19.01,17.53.05.02.08.08.06.14-.02.05-.08.08-.14.06-.11-.04-8.78-3.65-15.2-11.55Z"/><path class="cls-32" d="M23.63,27.64s-.03-.11.01-.15c.04-.04.11-.03.15,0,11.04,12.58,20.9,13.28,21,13.28.06,0,.1.05.1.11s-.05.1-.11.1c-.02,0-2.53-.16-6.37-1.88-3.54-1.59-8.97-4.87-14.77-11.47,0,0,0,0,0,0Z"/><path class="cls-52" d="M23.63,27.64s-.03-.09,0-.13c.04-.05.1-.06.15-.02,11.97,9.22,20.14,7.89,20.22,7.87.06-.01.11.03.12.09.01.06-.03.11-.09.12-.08.01-8.34,1.37-20.39-7.91,0,0-.01-.01-.02-.02Z"/><path class="cls-63" d="M29.32,36.95c-1.98-2.43-4.03-5.51-5.82-9.31-.02-.05,0-.12.05-.14.05-.02.12,0,.14.05,5.63,11.96,13.91,16.72,13.99,16.77.05.03.07.09.04.15-.03.05-.09.07-.15.04-.06-.03-3.98-2.29-8.26-7.55Z"/><path class="cls-13" d="M25.75,30.61c-.76-.93-1.48-1.93-2.13-2.98-.03-.05-.02-.12.03-.15.05-.03.12-.02.15.03,7.63,12.22,23.46,16.53,23.62,16.57.06.01.09.07.08.13-.02.06-.07.09-.13.08-.04-.01-4.05-1.09-8.96-3.67-3.79-1.99-8.78-5.25-12.65-10.02Z"/><path class="cls-56" d="M23.63,27.64s-.03-.1,0-.14c.04-.04.11-.04.15,0,9.21,8.91,17.44,10.41,17.52,10.43.06.01.1.07.09.12-.01.06-.07.1-.12.09-.08-.01-8.37-1.53-17.63-10.48,0,0,0,0,0,0Z"/><path class="cls-31" d="M23.55,27.66s-.03-.09,0-.13c.03-.05.1-.06.15-.03,10.3,6.91,25.01,5.71,25.16,5.7.06,0,.11.04.12.1,0,.06-.04.11-.1.12-.15.01-14.94,1.22-25.3-5.74,0,0-.02-.01-.02-.02Z"/><path class="cls-33" d="M23.63,27.64s-.03-.07-.01-.11c.03-.05.09-.08.14-.05,14.96,6.99,22.84,3.8,22.92,3.77.05-.02.12,0,.14.06.02.05,0,.12-.06.14-.08.03-2.02.84-5.85.78-3.52-.05-9.38-.88-17.24-4.56-.02,0-.03-.02-.04-.03Z"/><path class="cls-54" d="M23.63,27.64s-.03-.07-.02-.1c.02-.06.08-.08.14-.06,15.23,5.57,23.21,1.66,23.29,1.62.05-.03.12,0,.14.05.03.05,0,.12-.05.14-.02.01-2.04,1.02-5.93,1.32-3.58.28-9.53,0-17.53-2.93-.02,0-.03-.02-.05-.03Z"/><path class="cls-11" d="M23.51,27.67s-.03-.06-.02-.09c.01-.06.07-.09.13-.08,11.7,2.89,20.57-.18,20.66-.21.06-.02.12,0,.14.06.02.06,0,.12-.06.14-.09.03-9.02,3.12-20.78.22-.02,0-.04-.02-.06-.04Z"/><path class="cls-53" d="M23.51,27.67s-.03-.05-.02-.08c0-.06.06-.1.12-.09,11.93,1.69,22.86-3.07,22.97-3.12.05-.02.12,0,.14.05.02.05,0,.12-.05.14-.11.05-11.09,4.83-23.09,3.13-.03,0-.05-.02-.07-.04Z"/><path class="cls-35" d="M23.51,27.67s-.02-.04-.02-.06c0-.06.04-.11.1-.11,13.97-1.05,20.19-5.31,20.25-5.36.05-.03.12-.02.15.03.03.05.02.11-.03.15-.06.04-6.33,4.34-20.36,5.39-.04,0-.07-.01-.09-.04Z"/><path class="cls-37" d="M23.63,27.64s-.02-.03-.02-.05c0-.06.03-.11.09-.12,12.75-1.49,21.38-9.43,21.47-9.51.04-.04.11-.04.15,0,.04.04.04.11,0,.15-.09.08-8.77,8.06-21.59,9.56-.04,0-.07-.01-.1-.04Z"/><path class="cls-9" d="M23.51,27.67s-.02-.02-.02-.04c-.02-.06.01-.12.07-.13,15.29-4.69,20.21-13.5,20.26-13.59.03-.05.09-.07.14-.04.05.03.07.09.04.14-.01.02-1.25,2.27-4.37,5.06-2.87,2.57-7.99,6.16-16.02,8.63-.04.01-.09,0-.11-.03Z"/><path class="cls-61" d="M23.5,27.64c-.04-.09.02-.12.14-.19,2.63-1.47,11.57-6.67,16.28-11.96.04-.04.11-.05.15,0,.04.04.05.11,0,.15-4.73,5.32-13.7,10.53-16.34,12-.05.03-.08.04-.09.05l-.05-.09-.1.04Z"/><path class="cls-51" d="M39.75,15.85c.25.24,1.94-1.07,1.39-1.67-.62-.67-1.72,1.35-1.39,1.67Z"/><path class="cls-34" d="M43.3,14.9c.27.22,1.85-1.23,1.25-1.78-.67-.61-1.6,1.5-1.25,1.78Z"/><path class="cls-40" d="M44.56,18.65c.22.27,2.06-.83,1.58-1.49-.53-.74-1.87,1.14-1.58,1.49Z"/><path class="cls-16" d="M43.23,22.64c.17.3,2.17-.48,1.8-1.21-.41-.81-2.03.82-1.8,1.21Z"/><path class="cls-6" d="M45.6,24.89c.11.33,2.22-.03,2.01-.82-.23-.88-2.15.39-2.01.82Z"/><path class="cls-22" d="M43.27,27.67c.07.34,2.21.24,2.1-.57-.12-.9-2.18.13-2.1.57Z"/><path class="cls-41" d="M46.1,29.56c.1.33,2.22.03,2.04-.76-.21-.89-2.16.33-2.04.76Z"/><path class="cls-60" d="M45.95,31.59c.07.34,2.21.2,2.09-.6-.14-.9-2.18.16-2.09.6Z"/><path class="cls-7" d="M47.58,33.39c.02.34,2.16.53,2.15-.29,0-.91-2.18-.16-2.15.29Z"/><path class="cls-43" d="M43.23,35.52c.01.34,2.14.58,2.16-.24.02-.91-2.18-.21-2.16.24Z"/><path class="cls-19" d="M40.27,37.82c-.09.33,1.87,1.2,2.13.43.29-.86-2.01-.86-2.13-.43Z"/><path class="cls-28" d="M43.66,40.73c-.08.33,1.9,1.15,2.14.37.27-.87-2.03-.81-2.14-.37Z"/><path class="cls-50" d="M46.28,43.9c-.12.32,1.77,1.33,2.09.59.36-.84-1.94-1.01-2.09-.59Z"/><path class="cls-27" d="M41.56,44.71c-.15.31,1.62,1.52,2.02.81.44-.79-1.82-1.21-2.02-.81Z"/><path class="cls-4" d="M36.62,43.71c-.22.27,1.24,1.84,1.78,1.24.61-.67-1.5-1.59-1.78-1.24Z"/><path class="cls-14" d="M34.3,43.68c-.24.25,1.08,1.94,1.68,1.38.66-.62-1.37-1.71-1.68-1.38Z"/><g><path class="cls-5" d="M23.68,27.85L1.42,46.49c-.27.23-.67.19-.9-.08-.23-.27-.19-.67.08-.9,0,0,.01,0,.01-.01l22.79-17.99c.09-.07.23-.06.31.04.07.09.06.23-.03.3Z"/><path class="cls-5" d="M5.07,43.89c-2.4,1.95-4.24,3.66-4.93,2.82-.69-.85,1.36-2.3,3.76-4.25,2.4-1.95,4.5-3.35,4.93-2.82.43.53-1.36,2.3-3.76,4.25Z"/></g></svg>