<svg xmlns="http://www.w3.org/2000/svg" viewBox="0 0 49.9 51.06"><defs><style>
      .cls-1 {
        opacity: .88;
      }

      .cls-1, .cls-2, .cls-3, .cls-4, .cls-5, .cls-6, .cls-7, .cls-8, .cls-9, .cls-10, .cls-11, .cls-12, .cls-13, .cls-14, .cls-15, .cls-16, .cls-17, .cls-18, .cls-19, .cls-20, .cls-21, .cls-22, .cls-23, .cls-24, .cls-25, .cls-26, .cls-27, .cls-28, .cls-29, .cls-30, .cls-31, .cls-32, .cls-33, .cls-34, .cls-35, .cls-36, .cls-37, .cls-38, .cls-39, .cls-40, .cls-41, .cls-42, .cls-43, .cls-44, .cls-45, .cls-46, .cls-47, .cls-48, .cls-49, .cls-50, .cls-51, .cls-52, .cls-53, .cls-54, .cls-55, .cls-56, .cls-57, .cls-58, .cls-59, .cls-60, .cls-61, .cls-62, .cls-63, .cls-64, .cls-65 {
        fill: #117d89;
      }

      .cls-2 {
        opacity: .47;
      }

      .cls-3 {
        opacity: .58;
      }

      .cls-4 {
        opacity: .49;
      }

      .cls-6 {
        opacity: .4;
      }

      .cls-7 {
        opacity: .81;
      }

      .cls-8 {
        opacity: .42;
      }

      .cls-9 {
        opacity: .53;
      }

      .cls-10 {
        opacity: .71;
      }

      .cls-11 {
        opacity: .68;
      }

      .cls-12 {
        opacity: .39;
      }

      .cls-13 {
        opacity: .64;
      }

      .cls-14 {
        opacity: .54;
      }

      .cls-15 {
        opacity: .9;
      }

      .cls-16 {
        opacity: .92;
      }

      .cls-17 {
        opacity: .6;
      }

      .cls-18 {
        opacity: .72;
      }

      .cls-19 {
        opacity: .33;
      }

      .cls-20 {
        opacity: .73;
      }

      .cls-21 {
        opacity: .59;
      }

      .cls-22 {
        opacity: .86;
      }

      .cls-23 {
        opacity: .93;
      }

      .cls-24 {
        opacity: .82;
      }

      .cls-25 {
        opacity: .6;
      }

      .cls-26 {
        opacity: .82;
      }

      .cls-27 {
        opacity: .74;
      }

      .cls-28 {
        opacity: .97;
      }

      .cls-29 {
        opacity: .92;
      }

      .cls-30 {
        opacity: .59;
      }

      .cls-31 {
        opacity: .5;
      }

      .cls-32 {
        opacity: .95;
      }

      .cls-33 {
        opacity: .98;
      }

      .cls-34 {
        opacity: .88;
      }

      .cls-35 {
        opacity: .52;
      }

      .cls-36 {
        opacity: .81;
      }

      .cls-37 {
        opacity: .49;
      }

      .cls-38 {
        opacity: .53;
      }

      .cls-39 {
        opacity: .98;
      }

      .cls-40 {
        opacity: .78;
      }

      .cls-41 {
        opacity: .56;
      }

      .cls-42 {
        opacity: .39;
      }

      .cls-43 {
        opacity: .44;
      }

      .cls-44 {
        opacity: .61;
      }

      .cls-45 {
        opacity: .87;
      }

      .cls-46 {
        opacity: .81;
      }

      .cls-47 {
        opacity: .87;
      }

      .cls-48 {
        opacity: .82;
      }

      .cls-49 {
        opacity: .68;
      }

      .cls-50 {
        opacity: .34;
      }

      .cls-51 {
        opacity: .66;
      }

      .cls-52 {
        opacity: .9;
      }

      .cls-53 {
        opacity: .83;
      }

      .cls-54 {
        opacity: .84;
      }

      .cls-55 {
        opacity: .37;
      }

      .cls-56 {
        opacity: .73;
      }

      .cls-57 {
        opacity: .94;
      }

      .cls-58 {
        opacity: .79;
      }

      .cls-59 {
        opacity: .72;
      }

      .cls-60 {
        opacity: .74;
      }

      .cls-61 {
        opacity: .6;
      }

      .cls-62 {
        opacity: .42;
      }

      .cls-63 {
        opacity: .78;
      }

      .cls-64 {
        opacity: .81;
      }

      .cls-65 {
        opacity: .93;
      }
    </style></defs><path class="cls-3" d="M8.32,20.46c-3.63-2.15-5.89-4.2-5.93-4.23-.04-.04-.05-.11,0-.15.04-.04.11-.05.15,0,.08.07,8.14,7.34,18.3,8.89.06,0,.1.06.09.12,0,.06-.06.1-.12.09-4.84-.74-9.21-2.77-12.48-4.71Z"/><path class="cls-39" d="M14.19,22.18C5.44,16.98.6,8.93.54,8.83c-.03-.05-.01-.12.04-.15.05-.03.12-.01.15.04.07.12,7.32,12.18,20.13,16.24.06.02.09.08.07.13-.02.06-.08.09-.13.07-2.4-.76-4.6-1.8-6.6-2.98Z"/><path class="cls-59" d="M20.77,25.03s0,0,0,0c-7.38-4.77-11.42-9.66-13.51-12.93-2.27-3.55-2.79-6.01-2.8-6.03-.01-.06.03-.11.08-.13.06-.01.11.03.13.08.02.1,2.16,9.75,16.21,18.83.05.03.06.1.03.15-.03.05-.09.06-.14.03Z"/><path class="cls-10" d="M20.77,25.03s-.01,0-.02-.02C9.8,14.46,9.93,6.09,9.94,6.01c0-.06.05-.11.11-.1.06,0,.11.05.1.11,0,.08-.13,8.36,10.75,18.85.04.04.04.11,0,.15-.03.04-.09.04-.13.02Z"/><path class="cls-20" d="M10.72,20.76c-5.84-3.47-8.64-7.01-8.68-7.06-.04-.05-.03-.11.02-.15.05-.04.11-.03.15.02.06.08,5.99,7.57,18.63,11.39.06.02.09.08.07.13-.02.06-.08.09-.13.07-4.02-1.21-7.36-2.8-10.06-4.4Z"/><path class="cls-45" d="M17.52,23.36c-5.29-3.14-9.24-7.6-11.76-11.05C2.49,7.84.83,4.02.82,3.98c-.02-.05,0-.12.06-.14.05-.02.12,0,.14.06.02.04,1.66,3.83,4.92,8.29,3,4.11,8.03,9.64,14.93,12.65.05.02.08.09.06.14-.02.05-.09.08-.14.05-1.14-.5-2.22-1.06-3.26-1.68Z"/><path class="cls-38" d="M20.77,25.03s0,0-.01,0c-10.22-7.85-12.92-15.83-12.95-15.91-.02-.06.01-.12.07-.13.06-.02.12.01.13.07.03.08,2.72,8,12.88,15.8.05.04.06.1.02.15-.03.04-.09.05-.14.03Z"/><path class="cls-8" d="M20.76,25.12s-.02-.01-.02-.02C12.34,15.86,11.37,1.06,11.36.91c0-.06.04-.11.1-.11.06,0,.11.04.11.1,0,.15.98,14.88,9.32,24.06.04.04.04.11,0,.15-.04.03-.09.04-.13.01Z"/><path class="cls-49" d="M20.77,25.03s-.03-.02-.03-.03c-4.79-7.24-6.47-12.91-7.03-16.39-.62-3.78-.1-5.81-.08-5.9.01-.06.07-.09.13-.08.06.01.09.07.08.13-.02.08-2.02,8.34,7.08,22.12.03.05.02.12-.03.15-.04.02-.08.02-.11,0Z"/><path class="cls-48" d="M20.77,25.03s-.03-.02-.04-.04c-4.06-7.49-5.22-13.33-5.46-16.91-.27-3.89.43-6.04.44-6.06.02-.06.08-.09.14-.07.06.02.09.08.07.14-.03.08-2.72,8.56,5.01,22.8.03.05,0,.12-.04.14-.03.02-.07.02-.11,0Z"/><path class="cls-36" d="M20.76,25.15s-.03-.03-.04-.05c-4.59-11.21-2.84-20.5-2.83-20.59.01-.06.07-.1.13-.08.06.01.1.07.08.13-.02.09-1.75,9.32,2.81,20.47.02.05,0,.12-.06.14-.03.01-.07,0-.1,0Z"/><path class="cls-23" d="M20.76,25.15s-.04-.03-.05-.06c-3.43-11.62-.31-23.18-.28-23.3.02-.06.07-.09.13-.07.06.02.09.07.07.13-.03.11-3.13,11.62.28,23.18.02.06-.02.12-.07.13-.03,0-.06,0-.08-.01Z"/><path class="cls-21" d="M20.76,25.15s-.05-.05-.05-.08c-1.01-14.04,2.32-20.86,2.36-20.93.03-.05.09-.07.14-.05.05.03.07.09.05.14-.03.07-3.34,6.85-2.33,20.82,0,.06-.04.11-.1.11-.02,0-.04,0-.06-.01Z"/><path class="cls-18" d="M20.77,25.03s-.05-.05-.05-.09c-.4-12.9,6.23-22.66,6.3-22.76.03-.05.1-.06.15-.03.05.03.06.1.03.15-.07.1-6.65,9.8-6.26,22.63,0,.06-.04.11-.1.11-.02,0-.04,0-.06-.01Z"/><path class="cls-26" d="M20.76,25.15s-.06-.06-.05-.11c1.26-8.3,4.06-13.89,6.19-17.11,2.31-3.5,4.35-5.05,4.37-5.06.05-.04.11-.03.15.02.04.05.03.11-.02.15-.08.06-8.07,6.23-10.48,22.03,0,.06-.06.1-.12.09-.01,0-.03,0-.04-.01Z"/><path class="cls-12" d="M20.79,25.16l.06-.21-.03.1-.1-.04s.02-.04.04-.09c1.07-2.82,4.91-12.46,9.48-17.92.04-.05.11-.05.15-.01.05.04.05.11.01.15-4.55,5.44-8.38,15.04-9.45,17.86-.05.13-.07.19-.17.16Z"/><path class="cls-15" d="M30.07,7.36c-.27-.21.77-2.08,1.44-1.62.75.51-1.09,1.9-1.44,1.62Z"/><path class="cls-42" d="M30.49,3.7c-.25-.23.95-2.01,1.58-1.49.71.57-1.25,1.8-1.58,1.49Z"/><path class="cls-62" d="M26.6,3.01c-.3-.18.52-2.16,1.24-1.78.81.42-.86,2.01-1.24,1.78Z"/><path class="cls-46" d="M22.85,4.91c-.32-.13.16-2.21.93-1.96.87.28-.52,2.13-.93,1.96Z"/><path class="cls-2" d="M20.27,2.89c-.34-.06-.29-2.2.52-2.11.9.1-.07,2.19-.52,2.11Z"/><path class="cls-65" d="M17.87,5.6c-.34-.02-.56-2.15.25-2.16.91-.01.19,2.18-.25,2.16Z"/><path class="cls-55" d="M15.58,3.08c-.34-.05-.36-2.19.45-2.13.91.07,0,2.19-.45,2.13Z"/><path class="cls-30" d="M13.59,3.53c-.34-.02-.53-2.16.29-2.15.91,0,.16,2.18-.29,2.15Z"/><path class="cls-57" d="M11.58,2.18c-.34.03-.84-2.06-.03-2.17.9-.13.48,2.13.03,2.17Z"/><path class="cls-25" d="M10.1,6.8c-.34.04-.88-2.04-.08-2.17.9-.15.53,2.12.08,2.17Z"/><path class="cls-17" d="M8.26,10.06c-.31.14-1.46-1.67-.73-2.04.81-.41,1.14,1.86.73,2.04Z"/><path class="cls-58" d="M4.89,7.13c-.32.13-1.42-1.71-.68-2.06.82-.4,1.1,1.89.68,2.06Z"/><path class="cls-1" d="M1.37,5.01c-.3.16-1.58-1.56-.89-1.98.78-.48,1.28,1.77.89,1.98Z"/><path class="cls-44" d="M1.26,9.79c-.28.19-1.74-1.38-1.09-1.88.72-.56,1.46,1.63,1.09,1.88Z"/><path class="cls-64" d="M2.97,14.53c-.23.25-2-.95-1.49-1.58.58-.7,1.79,1.25,1.49,1.58Z"/><path class="cls-24" d="M3.33,16.82c-.21.27-2.07-.79-1.61-1.46.52-.75,1.89,1.1,1.61,1.46Z"/><path class="cls-29" d="M30.85,33.71c-3.27-1.94-7.14-4.8-10.11-8.7-.04-.05-.03-.11.02-.15s.11-.03.15.02c6.23,8.18,16.46,11.78,16.57,11.81.06.02.09.08.07.14-.02.06-.08.09-.14.07-.05-.02-2.93-1.03-6.56-3.18Z"/><path class="cls-47" d="M26.53,29.38c-2-1.19-3.96-2.62-5.78-4.36-.04-.04-.04-.11,0-.15s.11-.04.15,0c9.7,9.3,23.75,9.89,23.89,9.9.06,0,.1.05.1.11,0,.06-.05.11-.11.1-.12,0-9.5-.4-18.25-5.59Z"/><path class="cls-32" d="M20.87,24.97s-.07-.09-.04-.14c.03-.05.09-.07.14-.04,14.7,7.99,24.2,5.25,24.29,5.22.06-.02.12.01.13.07s-.01.12-.07.13c-.02,0-2.43.72-6.63.43-3.87-.27-10.1-1.47-17.82-5.67,0,0,0,0,0,0Z"/><path class="cls-52" d="M20.87,24.97s-.06-.08-.05-.12c.02-.06.08-.09.13-.07,14.41,4.53,21.62.45,21.69.41.05-.03.12-.01.15.04.03.05.01.12-.04.15-.07.04-7.35,4.17-21.87-.39,0,0-.02,0-.02-.01Z"/><path class="cls-63" d="M29.43,31.74c-2.7-1.6-5.69-3.78-8.68-6.73-.04-.04-.04-.11,0-.15.04-.04.11-.04.15,0,9.41,9.28,18.83,10.89,18.92,10.91.06,0,.1.06.09.12,0,.06-.06.1-.12.09-.06-.01-4.52-.77-10.36-4.24Z"/><path class="cls-13" d="M23.89,27.02c-1.04-.61-2.05-1.3-3.03-2.06-.05-.04-.06-.1-.02-.15.04-.05.1-.06.15-.02,11.38,8.84,27.73,7.42,27.89,7.4.06,0,.11.04.12.1,0,.06-.04.11-.1.12-.04,0-4.18.38-9.68-.35-4.24-.56-10.05-1.9-15.33-5.04Z"/><path class="cls-56" d="M20.87,24.97s-.07-.08-.04-.13c.02-.05.09-.08.14-.05,11.72,5.19,19.96,3.76,20.04,3.74.06-.01.11.03.12.09.01.06-.03.11-.09.12-.08.02-8.38,1.46-20.16-3.76,0,0,0,0-.01,0Z"/><path class="cls-31" d="M20.8,25.02s-.06-.07-.05-.12c.01-.06.07-.09.13-.08,12.05,2.93,25.45-3.27,25.58-3.33.05-.03.12,0,.14.05.03.05,0,.12-.05.14-.13.06-13.6,6.3-25.73,3.35-.01,0-.02,0-.03-.01Z"/><path class="cls-33" d="M20.87,24.97s-.06-.06-.05-.1c0-.06.06-.1.12-.1,16.46,1.4,22.75-4.31,22.81-4.37.04-.04.11-.04.15,0,.04.04.04.11,0,.15-.06.06-1.6,1.48-5.22,2.75-3.33,1.17-9.11,2.41-17.76,1.67-.02,0-.03,0-.05-.01Z"/><path class="cls-54" d="M20.87,24.97s-.05-.05-.05-.09c0-.06.05-.11.11-.11,16.22-.03,22.36-6.45,22.42-6.52.04-.04.11-.05.15,0,.04.04.05.11,0,.15-.02.02-1.57,1.66-5.11,3.29-3.26,1.5-8.94,3.28-17.46,3.3-.02,0-.04,0-.05-.01Z"/><path class="cls-11" d="M20.77,25.03s-.05-.05-.05-.08c0-.06.04-.11.09-.12,11.98-1.33,19.25-7.27,19.32-7.33.05-.04.11-.03.15.01.04.05.03.11-.01.15-.07.06-7.39,6.04-19.43,7.38-.02,0-.05,0-.07-.01Z"/><path class="cls-53" d="M20.77,25.03s-.04-.04-.05-.07c-.01-.06.02-.11.08-.13,11.78-2.53,20.4-10.77,20.49-10.85.04-.04.11-.04.15,0,.04.04.04.11,0,.15-.09.08-8.75,8.36-20.59,10.91-.03,0-.05,0-.08-.01Z"/><path class="cls-35" d="M20.77,25.03s-.03-.03-.04-.05c-.02-.05,0-.12.05-.14,12.75-5.8,17.12-11.95,17.16-12.02.03-.05.1-.06.15-.03.05.03.06.1.03.15-.04.06-4.44,6.26-17.25,12.09-.03.02-.07.01-.1,0Z"/><path class="cls-37" d="M20.87,24.97s-.03-.02-.04-.04c-.03-.05,0-.12.05-.14,11.45-5.8,16.82-16.22,16.87-16.33.03-.05.09-.07.14-.05.05.03.07.09.05.14-.05.11-5.45,10.6-16.97,16.42-.03.02-.07.01-.1,0Z"/><path class="cls-9" d="M20.77,25.03s-.02-.02-.03-.03c-.04-.05-.03-.11.02-.15,12.73-9.68,14.31-19.64,14.33-19.74,0-.06.06-.1.12-.09.06,0,.1.06.09.12,0,.03-.39,2.56-2.35,6.26-1.81,3.41-5.37,8.54-12.06,13.62-.04.03-.08.03-.12,0Z"/><path class="cls-61" d="M20.75,25.02c-.07-.07-.02-.12.07-.22,1.96-2.28,8.56-10.25,11.16-16.84.02-.05.08-.08.14-.06.05.02.08.08.06.14-2.61,6.62-9.23,14.61-11.19,16.9-.04.04-.06.07-.07.08l-.08-.07-.08.08Z"/><path class="cls-51" d="M31.93,8.34c.31.14,1.46-1.67.73-2.04-.81-.41-1.14,1.86-.73,2.04Z"/><path class="cls-34" d="M34.94,6.22c.33.11,1.31-1.79.56-2.1-.84-.34-.98,1.96-.56,2.1Z"/><path class="cls-40" d="M37.42,9.31c.3.17,1.64-1.49.97-1.94-.76-.51-1.36,1.72-.97,1.94Z"/><path class="cls-16" d="M37.54,13.51c.26.22,1.87-1.2,1.28-1.76-.66-.62-1.62,1.47-1.28,1.76Z"/><path class="cls-6" d="M40.55,14.81c.21.27,2.07-.8,1.61-1.46-.52-.75-1.88,1.11-1.61,1.46Z"/><path class="cls-22" d="M39.32,18.22c.18.29,2.15-.54,1.77-1.26-.43-.8-2.01.87-1.77,1.26Z"/><path class="cls-41" d="M42.63,19.01c.21.28,2.09-.73,1.65-1.41-.5-.76-1.92,1.05-1.65,1.41Z"/><path class="cls-60" d="M43.18,20.97c.18.29,2.14-.57,1.75-1.28-.44-.8-1.99.9-1.75,1.28Z"/><path class="cls-7" d="M45.34,22.1c.14.31,2.21-.25,1.92-1.01-.32-.85-2.1.6-1.92,1.01Z"/><path class="cls-43" d="M41.98,25.6c.13.32,2.21-.2,1.95-.97-.3-.86-2.12.55-1.95.97Z"/><path class="cls-19" d="M40,28.78c.03.34,2.17.48,2.15-.33-.02-.91-2.18-.11-2.15.33Z"/><path class="cls-28" d="M44.19,30.34c.04.34,2.18.42,2.14-.39-.05-.91-2.19-.06-2.14.39Z"/><path class="cls-50" d="M47.74,32.41c0,.34,2.13.64,2.17-.17.05-.91-2.17-.28-2.17.17Z"/><path class="cls-27" d="M43.59,34.8c-.03.34,2.04.86,2.17.06.14-.9-2.13-.51-2.17-.06Z"/><path class="cls-4" d="M38.61,35.57c-.11.33,1.8,1.3,2.1.55.34-.84-1.96-.98-2.1-.55Z"/><path class="cls-14" d="M36.43,36.34c-.14.32,1.69,1.44,2.05.72.41-.81-1.87-1.13-2.05-.72Z"/><g><path class="cls-5" d="M20.99,25.14l-14.46,25.18c-.18.31-.57.41-.87.24-.31-.18-.41-.57-.24-.87,0,0,0-.01,0-.02l15.19-24.75c.06-.1.2-.13.3-.07.1.06.13.19.08.29Z"/><path class="cls-5" d="M9.06,46.63c-1.58,2.66-2.72,4.9-3.66,4.34-.94-.56.48-2.63,2.06-5.29,1.58-2.66,3.07-4.69,3.66-4.34.59.35-.48,2.63-2.06,5.29Z"/></g></svg>