<svg xmlns="http://www.w3.org/2000/svg" viewBox="0 0 27.57 27.83"><defs><style>
      .cls-1 {
        opacity: .88;
      }

      .cls-1, .cls-2, .cls-3, .cls-4, .cls-5, .cls-6, .cls-7, .cls-8, .cls-9, .cls-10, .cls-11, .cls-12, .cls-13, .cls-14, .cls-15, .cls-16, .cls-17, .cls-18, .cls-19, .cls-20, .cls-21, .cls-22, .cls-23, .cls-24, .cls-25, .cls-26, .cls-27, .cls-28, .cls-29, .cls-30, .cls-31, .cls-32, .cls-33, .cls-34, .cls-35, .cls-36, .cls-37, .cls-38, .cls-39, .cls-40, .cls-41, .cls-42, .cls-43, .cls-44, .cls-45, .cls-46, .cls-47, .cls-48, .cls-49, .cls-50, .cls-51, .cls-52, .cls-53, .cls-54, .cls-55, .cls-56, .cls-57, .cls-58, .cls-59, .cls-60, .cls-61, .cls-62, .cls-63, .cls-64, .cls-65 {
        fill: #117d89;
      }

      .cls-2 {
        opacity: .47;
      }

      .cls-3 {
        opacity: .58;
      }

      .cls-4 {
        opacity: .49;
      }

      .cls-6 {
        opacity: .4;
      }

      .cls-7 {
        opacity: .81;
      }

      .cls-8 {
        opacity: .42;
      }

      .cls-9 {
        opacity: .53;
      }

      .cls-10 {
        opacity: .71;
      }

      .cls-11 {
        opacity: .68;
      }

      .cls-12 {
        opacity: .39;
      }

      .cls-13 {
        opacity: .64;
      }

      .cls-14 {
        opacity: .54;
      }

      .cls-15 {
        opacity: .9;
      }

      .cls-16 {
        opacity: .92;
      }

      .cls-17 {
        opacity: .6;
      }

      .cls-18 {
        opacity: .72;
      }

      .cls-19 {
        opacity: .33;
      }

      .cls-20 {
        opacity: .73;
      }

      .cls-21 {
        opacity: .59;
      }

      .cls-22 {
        opacity: .86;
      }

      .cls-23 {
        opacity: .93;
      }

      .cls-24 {
        opacity: .82;
      }

      .cls-25 {
        opacity: .6;
      }

      .cls-26 {
        opacity: .82;
      }

      .cls-27 {
        opacity: .74;
      }

      .cls-28 {
        opacity: .97;
      }

      .cls-29 {
        opacity: .92;
      }

      .cls-30 {
        opacity: .59;
      }

      .cls-31 {
        opacity: .5;
      }

      .cls-32 {
        opacity: .95;
      }

      .cls-33 {
        opacity: .98;
      }

      .cls-34 {
        opacity: .88;
      }

      .cls-35 {
        opacity: .52;
      }

      .cls-36 {
        opacity: .81;
      }

      .cls-37 {
        opacity: .49;
      }

      .cls-38 {
        opacity: .53;
      }

      .cls-39 {
        opacity: .98;
      }

      .cls-40 {
        opacity: .78;
      }

      .cls-41 {
        opacity: .56;
      }

      .cls-42 {
        opacity: .39;
      }

      .cls-43 {
        opacity: .44;
      }

      .cls-44 {
        opacity: .61;
      }

      .cls-45 {
        opacity: .87;
      }

      .cls-46 {
        opacity: .81;
      }

      .cls-47 {
        opacity: .87;
      }

      .cls-48 {
        opacity: .82;
      }

      .cls-49 {
        opacity: .68;
      }

      .cls-50 {
        opacity: .34;
      }

      .cls-51 {
        opacity: .66;
      }

      .cls-52 {
        opacity: .9;
      }

      .cls-53 {
        opacity: .83;
      }

      .cls-54 {
        opacity: .84;
      }

      .cls-55 {
        opacity: .37;
      }

      .cls-56 {
        opacity: .73;
      }

      .cls-57 {
        opacity: .94;
      }

      .cls-58 {
        opacity: .79;
      }

      .cls-59 {
        opacity: .72;
      }

      .cls-60 {
        opacity: .74;
      }

      .cls-61 {
        opacity: .6;
      }

      .cls-62 {
        opacity: .42;
      }

      .cls-63 {
        opacity: .78;
      }

      .cls-64 {
        opacity: .81;
      }

      .cls-65 {
        opacity: .93;
      }
    </style></defs><path class="cls-3" d="M4.76,11.17c-2.01-1.09-3.28-2.16-3.31-2.18-.02-.02-.03-.06,0-.08.02-.02.06-.03.08,0,.05.04,4.57,3.82,10.11,4.45.03,0,.05.03.05.06,0,.03-.03.05-.06.05-2.64-.3-5.06-1.32-6.87-2.3Z"/><path class="cls-39" d="M7.98,11.98C3.13,9.34.34,5.07.3,5.02c-.02-.03,0-.06.02-.08s.06,0,.08.02c.04.06,4.22,6.46,11.25,8.4.03,0,.05.04.04.07,0,.03-.04.05-.07.04-1.32-.36-2.53-.88-3.64-1.48Z"/><path class="cls-59" d="M11.61,13.4s0,0,0,0c-4.1-2.44-6.39-5.01-7.59-6.74-1.3-1.88-1.64-3.2-1.64-3.22,0-.03.01-.06.04-.07.03,0,.06.01.07.04.01.05,1.37,5.25,9.18,9.89.03.02.04.05.02.08-.02.03-.05.04-.08.02Z"/><path class="cls-10" d="M11.61,13.4s0,0-.01,0C5.44,7.88,5.35,3.34,5.35,3.3c0-.03.03-.06.06-.06s.06.03.06.06c0,.04.1,4.54,6.22,10.01.02.02.03.06,0,.08-.02.02-.05.02-.07.01Z"/><path class="cls-20" d="M6.07,11.29c-3.24-1.76-4.83-3.63-4.85-3.66-.02-.02-.02-.06,0-.08s.06-.02.08,0c.03.04,3.4,3.99,10.34,5.8.03,0,.05.04.04.07,0,.03-.04.05-.07.04-2.21-.58-4.05-1.37-5.55-2.18Z"/><path class="cls-45" d="M9.82,12.56c-2.93-1.6-5.17-3.93-6.61-5.76C1.34,4.44.37,2.4.36,2.38c-.01-.03,0-.06.03-.08.03-.01.06,0,.08.03,0,.02.98,2.05,2.84,4.4,1.71,2.17,4.56,5.07,8.36,6.56.03.01.04.05.03.08s-.05.04-.08.03c-.63-.25-1.23-.53-1.8-.84Z"/><path class="cls-38" d="M11.61,13.4s0,0,0,0C5.9,9.34,4.27,5.07,4.25,5.03c-.01-.03,0-.06.03-.07.03-.01.06,0,.07.03.02.04,1.64,4.29,7.31,8.31.03.02.03.05.01.08-.02.02-.05.03-.07.02Z"/><path class="cls-8" d="M11.61,13.44s0,0-.01-.01C6.85,8.59,6.02.58,6.01.5c0-.03.02-.06.05-.06.03,0,.06.02.06.05,0,.08.83,8.05,5.55,12.87.02.02.02.06,0,.08-.02.02-.05.02-.07,0Z"/><path class="cls-49" d="M11.61,13.4s-.01,0-.02-.02c-2.75-3.83-3.77-6.87-4.15-8.75-.41-2.04-.17-3.15-.16-3.2,0-.03.04-.05.07-.04.03,0,.05.04.04.07,0,.04-.93,4.57,4.29,11.86.02.03.01.06-.01.08-.02.01-.04.01-.06,0Z"/><path class="cls-48" d="M11.61,13.4s-.02-.01-.02-.02c-2.36-3.98-3.1-7.13-3.31-9.07-.23-2.11.11-3.29.12-3.3,0-.03.04-.05.07-.04.03,0,.05.04.04.07-.01.05-1.3,4.7,3.18,12.27.02.03,0,.06-.02.08-.02.01-.04.01-.06,0Z"/><path class="cls-36" d="M11.61,13.46s-.02-.01-.02-.03c-2.72-5.99-1.96-11.07-1.95-11.12,0-.03.03-.05.07-.05.03,0,.05.03.05.07,0,.05-.76,5.09,1.94,11.05.01.03,0,.06-.03.08-.02,0-.04,0-.05,0Z"/><path class="cls-23" d="M11.61,13.46s-.02-.02-.03-.03c-2.1-6.23-.64-12.57-.63-12.64,0-.03.04-.05.07-.04.03,0,.05.04.04.07-.01.06-1.46,6.37.62,12.57.01.03,0,.06-.04.07-.02,0-.03,0-.05,0Z"/><path class="cls-21" d="M11.61,13.46s-.03-.02-.03-.04c-.84-7.6.84-11.37.85-11.41.01-.03.05-.04.08-.03.03.01.04.05.03.08-.02.04-1.67,3.78-.84,11.34,0,.03-.02.06-.05.06-.01,0-.02,0-.03,0Z"/><path class="cls-18" d="M11.61,13.4s-.03-.03-.03-.05c-.48-6.99,2.92-12.42,2.95-12.48.02-.03.05-.04.08-.02.03.02.03.05.02.08-.03.05-3.41,5.46-2.94,12.41,0,.03-.02.06-.05.06-.01,0-.02,0-.03,0Z"/><path class="cls-26" d="M11.61,13.46s-.03-.03-.03-.06c.52-4.53,1.92-7.62,3.01-9.41,1.18-1.94,2.26-2.83,2.27-2.84.02-.02.06-.02.08,0,.02.02.02.06,0,.08-.04.03-4.25,3.54-5.24,12.17,0,.03-.03.05-.06.05,0,0-.01,0-.02,0Z"/><path class="cls-12" d="M11.62,13.47l.03-.11v.06s-.07-.02-.07-.02c0,0,0-.02.02-.05.52-1.55,2.41-6.86,4.78-9.92.02-.03.06-.03.08-.01.03.02.03.06.01.08-2.36,3.04-4.24,8.33-4.76,9.88-.02.07-.04.1-.09.09Z"/><path class="cls-15" d="M16.3,3.62c-.15-.11.38-1.14.75-.91.42.26-.55,1.05-.75.91Z"/><path class="cls-42" d="M16.45,1.63c-.14-.12.47-1.11.83-.84.39.3-.64,1-.83.84Z"/><path class="cls-62" d="M14.33,1.33c-.16-.09.24-1.18.64-.99.45.21-.42,1.11-.64.99Z"/><path class="cls-46" d="M12.33,2.43c-.18-.06.04-1.2.47-1.08.48.14-.24,1.16-.47,1.08Z"/><path class="cls-2" d="M10.89,1.39c-.19-.02-.2-1.19.24-1.16.49.04,0,1.19-.24,1.16Z"/><path class="cls-65" d="M9.64,2.91c-.19,0-.35-1.15.09-1.18.49-.02.15,1.18-.09,1.18Z"/><path class="cls-55" d="M8.35,1.59c-.19-.02-.24-1.18.2-1.16.49.02.04,1.19-.2,1.16Z"/><path class="cls-30" d="M7.28,1.88c-.19,0-.33-1.16.11-1.17.49-.02.13,1.18-.11,1.17Z"/><path class="cls-57" d="M6.16,1.18c-.19.02-.5-1.1-.06-1.18.49-.09.3,1.15.06,1.18Z"/><path class="cls-25" d="M5.45,3.72c-.18.03-.52-1.09-.09-1.18.48-.1.33,1.14.09,1.18Z"/><path class="cls-17" d="M4.52,5.53c-.17.08-.82-.88-.44-1.09.43-.24.66.99.44,1.09Z"/><path class="cls-58" d="M2.63,4.01c-.17.08-.8-.9-.41-1.11.44-.23.63,1,.41,1.11Z"/><path class="cls-1" d="M.68,2.93c-.16.09-.89-.81-.52-1.06.41-.27.73.94.52,1.06Z"/><path class="cls-44" d="M.71,5.52c-.15.11-.97-.71-.63-1,.38-.32.83.85.63,1Z"/><path class="cls-64" d="M1.74,8.06c-.12.14-1.11-.48-.84-.83.3-.39,1,.64.84.83Z"/><path class="cls-24" d="M1.98,9.3c-.11.15-1.14-.39-.9-.76.27-.42,1.05.56.9.76Z"/><path class="cls-29" d="M17.26,17.9c-1.81-.99-3.97-2.46-5.66-4.52-.02-.02-.02-.06,0-.08.02-.02.06-.02.08,0,3.55,4.31,9.17,6.06,9.23,6.07.03,0,.05.04.04.07,0,.03-.04.05-.07.04-.03,0-1.61-.5-3.62-1.59Z"/><path class="cls-47" d="M14.82,15.64c-1.11-.6-2.2-1.34-3.22-2.25-.02-.02-.03-.06,0-.08.02-.02.06-.03.08,0,5.45,4.85,13.09,4.88,13.17,4.88.03,0,.06.03.06.06s-.03.06-.06.06c-.06,0-5.17-.02-10.02-2.66Z"/><path class="cls-32" d="M11.66,13.36s-.04-.05-.02-.08c.01-.03.05-.04.08-.03,8.14,4.04,13.24,2.36,13.29,2.34.03-.01.06,0,.07.04.01.03,0,.06-.04.07-.01,0-1.31.44-3.59.37-2.11-.07-5.51-.59-9.79-2.71,0,0,0,0,0,0Z"/><path class="cls-52" d="M11.66,13.36s-.04-.04-.03-.07c0-.03.04-.05.07-.04,7.91,2.16,11.74-.19,11.78-.22.03-.02.06,0,.08.02s0,.06-.02.08c-.04.02-3.9,2.41-11.87.23,0,0,0,0-.01,0Z"/><path class="cls-63" d="M16.45,16.86c-1.5-.81-3.16-1.93-4.85-3.47-.02-.02-.03-.06,0-.08s.06-.03.08,0c5.3,4.84,10.44,5.53,10.49,5.53.03,0,.05.03.05.06,0,.03-.03.05-.06.05-.04,0-2.47-.33-5.71-2.09Z"/><path class="cls-13" d="M13.35,14.41c-.57-.31-1.14-.66-1.69-1.06-.03-.02-.03-.05-.01-.08.02-.03.06-.03.08-.01,6.36,4.56,15.2,3.46,15.29,3.45.03,0,.06.02.07.05,0,.03-.02.06-.05.07-.02,0-2.26.29-5.26,0-2.31-.22-5.49-.83-8.42-2.42Z"/><path class="cls-56" d="M11.66,13.36s-.04-.04-.03-.07c.01-.03.05-.04.08-.03,6.47,2.58,10.91,1.63,10.95,1.62.03,0,.06.01.07.04s-.01.06-.04.07c-.04,0-4.52.96-11.02-1.63,0,0,0,0,0,0Z"/><path class="cls-31" d="M11.63,13.39s-.03-.04-.03-.06c0-.03.04-.05.07-.05,6.6,1.35,13.74-2.29,13.82-2.33.03-.01.06,0,.08.02s0,.06-.02.08c-.07.04-7.25,3.69-13.89,2.34,0,0-.01,0-.02,0Z"/><path class="cls-33" d="M11.66,13.36s-.03-.03-.03-.05c0-.03.03-.06.06-.06,8.96.43,12.26-2.8,12.29-2.83.02-.02.06-.02.08,0,.02.02.02.06,0,.08-.03.03-.84.84-2.78,1.6-1.78.7-4.89,1.49-9.6,1.27,0,0-.02,0-.02,0Z"/><path class="cls-54" d="M11.66,13.36s-.03-.03-.03-.05c0-.03.02-.06.06-.06,8.8-.35,12-3.96,12.03-3.99.02-.02.06-.03.08,0,.02.02.03.06,0,.08,0,0-.82.94-2.71,1.89-1.74.88-4.79,1.96-9.41,2.14-.01,0-.02,0-.03,0Z"/><path class="cls-11" d="M11.61,13.4s-.03-.02-.03-.04c0-.03.02-.06.05-.07,6.47-.96,10.3-4.34,10.33-4.37.02-.02.06-.02.08,0,.02.02.02.06,0,.08-.04.03-3.89,3.43-10.39,4.4-.01,0-.03,0-.04,0Z"/><path class="cls-53" d="M11.61,13.4s-.02-.02-.03-.04c0-.03.01-.06.04-.07,6.34-1.61,10.85-6.26,10.9-6.3.02-.02.06-.02.08,0,.02.02.02.06,0,.08-.05.05-4.58,4.71-10.95,6.34-.01,0-.03,0-.04,0Z"/><path class="cls-35" d="M11.61,13.4s-.02-.01-.02-.02c-.01-.03,0-.06.03-.08,6.8-3.41,9.05-6.84,9.07-6.87.02-.03.05-.03.08-.02.03.02.03.05.02.08-.02.03-2.28,3.49-9.11,6.91-.02,0-.04,0-.05,0Z"/><path class="cls-37" d="M11.66,13.36s-.02-.01-.02-.02c-.02-.03,0-.06.02-.08,6.1-3.38,8.8-9.15,8.82-9.2.01-.03.05-.04.08-.03.03.01.04.05.03.08-.03.06-2.74,5.86-8.87,9.26-.02.01-.04,0-.06,0Z"/><path class="cls-9" d="M11.61,13.4s-.01,0-.02-.01c-.02-.02-.02-.06,0-.08,6.71-5.51,7.37-10.95,7.37-11.01,0-.03.03-.05.06-.05.03,0,.05.03.05.06,0,.01-.16,1.4-1.15,3.44-.91,1.89-2.74,4.74-6.27,7.64-.02.02-.04.02-.06,0Z"/><path class="cls-61" d="M11.6,13.39s-.02-.07.03-.12c1.02-1.28,4.44-5.74,5.71-9.37.01-.03.04-.05.07-.04.03.01.05.04.04.07-1.28,3.65-4.71,8.12-5.73,9.4-.02.02-.03.04-.03.04l-.05-.03-.04.04Z"/><path class="cls-51" d="M17.33,4.12c.17.07.76-.94.36-1.12-.45-.21-.58,1.03-.36,1.12Z"/><path class="cls-34" d="M18.92,2.9c.18.05.67-1,.26-1.15-.46-.17-.49,1.08-.26,1.15Z"/><path class="cls-40" d="M20.33,4.53c.16.09.86-.84.49-1.07-.42-.26-.7.96-.49,1.07Z"/><path class="cls-16" d="M20.48,6.8c.15.11.99-.69.66-.98-.37-.33-.85.83-.66.98Z"/><path class="cls-6" d="M22.14,7.45c.12.14,1.11-.48.84-.83-.3-.39-1,.64-.84.83Z"/><path class="cls-22" d="M21.54,9.32c.1.16,1.16-.34.94-.72-.25-.43-1.07.51-.94.72Z"/><path class="cls-41" d="M23.35,9.69c.12.15,1.12-.44.87-.8-.29-.4-1.02.61-.87.8Z"/><path class="cls-60" d="M23.69,10.74c.11.15,1.15-.35.93-.73-.25-.42-1.06.53-.93.73Z"/><path class="cls-7" d="M24.88,11.31c.08.17,1.19-.18,1.02-.59-.19-.46-1.13.37-1.02.59Z"/><path class="cls-43" d="M23.14,13.28c.08.17,1.2-.15,1.04-.56-.18-.46-1.14.34-1.04.56Z"/><path class="cls-19" d="M22.12,15.04c.02.19,1.19.21,1.16-.22-.03-.49-1.19-.02-1.16.22Z"/><path class="cls-28" d="M24.43,15.8c.03.18,1.19.19,1.15-.25-.04-.49-1.19.01-1.15.25Z"/><path class="cls-50" d="M26.4,16.85c0,.19,1.17.3,1.17-.14,0-.49-1.18-.11-1.17.14Z"/><path class="cls-27" d="M24.2,18.24c-.01.19,1.13.43,1.18-.01.06-.49-1.17-.23-1.18.01Z"/><path class="cls-4" d="M21.51,18.75c-.05.18,1,.67,1.15.26.17-.46-1.08-.49-1.15-.26Z"/><path class="cls-14" d="M20.34,19.22c-.07.17.94.75,1.13.35.21-.45-1.04-.58-1.13-.35Z"/><g><path class="cls-5" d="M11.73,13.45l-7.34,13.96c-.09.17-.3.24-.47.15-.17-.09-.24-.3-.15-.47,0,0,0,0,0,0l7.74-13.74c.03-.06.1-.08.16-.05.06.03.08.1.05.16Z"/><path class="cls-5" d="M5.69,25.36c-.8,1.48-1.37,2.72-1.9,2.43-.52-.28.21-1.44,1.01-2.91s1.57-2.61,1.9-2.43-.21,1.44-1.01,2.91Z"/></g></svg>