<svg xmlns="http://www.w3.org/2000/svg" viewBox="0 0 35.25 34.33"><defs><style>
      .cls-1 {
        opacity: .88;
      }

      .cls-1, .cls-2, .cls-3, .cls-4, .cls-5, .cls-6, .cls-7, .cls-8, .cls-9, .cls-10, .cls-11, .cls-12, .cls-13, .cls-14, .cls-15, .cls-16, .cls-17, .cls-18, .cls-19, .cls-20, .cls-21, .cls-22, .cls-23, .cls-24, .cls-25, .cls-26, .cls-27, .cls-28, .cls-29, .cls-30, .cls-31, .cls-32, .cls-33, .cls-34, .cls-35, .cls-36, .cls-37, .cls-38, .cls-39, .cls-40, .cls-41, .cls-42, .cls-43, .cls-44, .cls-45, .cls-46, .cls-47, .cls-48, .cls-49, .cls-50, .cls-51, .cls-52, .cls-53, .cls-54, .cls-55, .cls-56, .cls-57, .cls-58, .cls-59, .cls-60, .cls-61, .cls-62, .cls-63, .cls-64, .cls-65 {
        fill: #117d89;
      }

      .cls-2 {
        opacity: .47;
      }

      .cls-3 {
        opacity: .58;
      }

      .cls-4 {
        opacity: .49;
      }

      .cls-6 {
        opacity: .4;
      }

      .cls-7 {
        opacity: .81;
      }

      .cls-8 {
        opacity: .42;
      }

      .cls-9 {
        opacity: .53;
      }

      .cls-10 {
        opacity: .71;
      }

      .cls-11 {
        opacity: .68;
      }

      .cls-12 {
        opacity: .39;
      }

      .cls-13 {
        opacity: .64;
      }

      .cls-14 {
        opacity: .54;
      }

      .cls-15 {
        opacity: .9;
      }

      .cls-16 {
        opacity: .92;
      }

      .cls-17 {
        opacity: .6;
      }

      .cls-18 {
        opacity: .72;
      }

      .cls-19 {
        opacity: .33;
      }

      .cls-20 {
        opacity: .73;
      }

      .cls-21 {
        opacity: .59;
      }

      .cls-22 {
        opacity: .86;
      }

      .cls-23 {
        opacity: .93;
      }

      .cls-24 {
        opacity: .82;
      }

      .cls-25 {
        opacity: .6;
      }

      .cls-26 {
        opacity: .82;
      }

      .cls-27 {
        opacity: .74;
      }

      .cls-28 {
        opacity: .97;
      }

      .cls-29 {
        opacity: .92;
      }

      .cls-30 {
        opacity: .59;
      }

      .cls-31 {
        opacity: .5;
      }

      .cls-32 {
        opacity: .95;
      }

      .cls-33 {
        opacity: .98;
      }

      .cls-34 {
        opacity: .88;
      }

      .cls-35 {
        opacity: .52;
      }

      .cls-36 {
        opacity: .81;
      }

      .cls-37 {
        opacity: .49;
      }

      .cls-38 {
        opacity: .53;
      }

      .cls-39 {
        opacity: .98;
      }

      .cls-40 {
        opacity: .78;
      }

      .cls-41 {
        opacity: .56;
      }

      .cls-42 {
        opacity: .39;
      }

      .cls-43 {
        opacity: .44;
      }

      .cls-44 {
        opacity: .61;
      }

      .cls-45 {
        opacity: .87;
      }

      .cls-46 {
        opacity: .81;
      }

      .cls-47 {
        opacity: .87;
      }

      .cls-48 {
        opacity: .82;
      }

      .cls-49 {
        opacity: .68;
      }

      .cls-50 {
        opacity: .34;
      }

      .cls-51 {
        opacity: .66;
      }

      .cls-52 {
        opacity: .9;
      }

      .cls-53 {
        opacity: .83;
      }

      .cls-54 {
        opacity: .84;
      }

      .cls-55 {
        opacity: .37;
      }

      .cls-56 {
        opacity: .73;
      }

      .cls-57 {
        opacity: .94;
      }

      .cls-58 {
        opacity: .79;
      }

      .cls-59 {
        opacity: .72;
      }

      .cls-60 {
        opacity: .74;
      }

      .cls-61 {
        opacity: .6;
      }

      .cls-62 {
        opacity: .42;
      }

      .cls-63 {
        opacity: .78;
      }

      .cls-64 {
        opacity: .81;
      }

      .cls-65 {
        opacity: .93;
      }
    </style></defs><path class="cls-3" d="M8.11,15.51c-2.58-.59-4.33-1.37-4.37-1.38-.03-.02-.05-.06-.03-.09s.06-.05.09-.03c.06.03,6.28,2.81,12.66,1.77.04,0,.07.02.08.06,0,.04-.02.07-.06.08-3.04.49-6.04.13-8.37-.4Z"/><path class="cls-39" d="M11.95,15.41C5.72,13.99,1.27,10.12,1.22,10.07c-.03-.02-.03-.07,0-.09s.07-.03.09,0c.07.06,6.73,5.86,15.17,5.81.04,0,.07.03.07.07s-.03.07-.07.07c-1.58,0-3.1-.18-4.52-.51Z"/><path class="cls-59" d="M16.44,15.84s0,0,0,0c-5.33-1.42-8.69-3.57-10.57-5.12-2.04-1.68-2.83-3.05-2.84-3.06-.02-.03,0-.07.03-.09.03-.02.07,0,.09.03.03.05,3.18,5.41,13.33,8.12.04,0,.06.05.05.08,0,.03-.04.06-.08.05Z"/><path class="cls-10" d="M16.44,15.84s0,0-.01,0C7.84,11.64,6.3,6.62,6.29,6.57c-.01-.04.01-.07.05-.08.04-.01.07.01.08.05.01.05,1.54,5.02,10.07,9.19.03.02.05.06.03.09-.01.03-.05.04-.08.04Z"/><path class="cls-20" d="M9.61,15.23c-4.16-.94-6.52-2.52-6.55-2.54-.03-.02-.04-.06-.02-.09.02-.03.06-.04.09-.02.05.03,5.04,3.37,13.34,3.21.04,0,.07.03.07.07,0,.04-.03.07-.07.07-2.64.05-4.94-.25-6.86-.68Z"/><path class="cls-45" d="M14.18,15.47c-3.77-.85-6.99-2.75-9.17-4.33C2.19,9.1.46,7.14.45,7.12c-.02-.03-.02-.07,0-.09s.07-.02.09,0c.02.02,1.73,1.97,4.54,4,2.59,1.88,6.67,4.21,11.37,4.68.04,0,.06.04.06.07,0,.04-.04.06-.07.06-.78-.08-1.53-.2-2.27-.37Z"/><path class="cls-38" d="M16.44,15.84s0,0,0,0c-7.62-2.72-10.78-6.96-10.81-7-.02-.03-.02-.07.01-.09s.07-.02.09.01c.03.04,3.17,4.26,10.75,6.96.03.01.05.05.04.09-.01.03-.05.05-.08.04Z"/><path class="cls-8" d="M16.45,15.89s-.01,0-.02,0C9.63,11.99,6.19,3.33,6.15,3.24c-.01-.03,0-.07.04-.09.03-.01.07,0,.09.04.03.09,3.46,8.7,10.22,12.58.03.02.04.06.02.09-.01.03-.04.04-.07.03Z"/><path class="cls-49" d="M16.44,15.84s-.02,0-.03-.01c-4.26-3.4-6.36-6.47-7.37-8.43-1.1-2.14-1.18-3.46-1.19-3.51,0-.04.03-.07.06-.07.04,0,.07.03.07.06,0,.05.4,5.37,8.51,11.85.03.02.03.07.01.09-.02.02-.04.03-.07.02Z"/><path class="cls-48" d="M16.44,15.84s-.02,0-.03-.02c-3.88-3.69-5.69-6.96-6.53-9.05-.91-2.27-.91-3.69-.91-3.71,0-.04.03-.07.07-.07.04,0,.07.03.07.07,0,.06.03,5.64,7.4,12.66.03.03.03.07,0,.09-.02.02-.04.02-.06.02Z"/><path class="cls-36" d="M16.46,15.91s-.03-.01-.04-.02c-4.91-5.81-5.66-11.7-5.67-11.76,0-.04.02-.07.06-.07.04,0,.07.02.07.06,0,.06.75,5.91,5.64,11.69.02.03.02.07,0,.09-.02.01-.04.02-.06.01Z"/><path class="cls-23" d="M16.46,15.91s-.03-.01-.04-.03c-4.3-6.28-4.67-13.79-4.67-13.87,0-.04.03-.07.06-.07.04,0,.07.03.07.06,0,.07.37,7.55,4.65,13.8.02.03.01.07-.02.09-.02.01-.04.01-.05.01Z"/><path class="cls-21" d="M16.46,15.91s-.04-.02-.05-.04c-3.32-8.19-2.64-12.92-2.64-12.96,0-.04.04-.06.08-.06.04,0,.06.04.06.08,0,.05-.67,4.74,2.63,12.89.01.03,0,.07-.04.09-.01,0-.03,0-.04,0Z"/><path class="cls-18" d="M16.44,15.84s-.04-.02-.05-.04c-2.73-7.63-.66-14.75-.63-14.82.01-.04.05-.06.08-.05.04.01.06.05.05.08-.02.07-2.08,7.15.63,14.74.01.03,0,.07-.04.09-.01,0-.03,0-.04,0Z"/><path class="cls-26" d="M16.46,15.91s-.05-.03-.05-.05c-.85-5.21-.26-9.08.39-11.42.7-2.54,1.62-3.86,1.63-3.87.02-.03.06-.04.09-.02.03.02.04.06.02.09-.04.05-3.62,5.28-2,15.19,0,.04-.02.07-.06.08,0,0-.02,0-.03,0Z"/><path class="cls-12" d="M16.47,15.92v-.13s0,.07,0,.07h-.07s0-.03,0-.07c.09-1.89.53-8.4,2.2-12.54.01-.03.05-.05.09-.04.03.01.05.05.04.09-1.67,4.13-2.1,10.61-2.19,12.5,0,.08,0,.13-.07.13Z"/><path class="cls-15" d="M18.58,3.48c-.2-.07.06-1.39.55-1.25.55.16-.28,1.34-.55,1.25Z"/><path class="cls-42" d="M18.13,1.22c-.2-.09.18-1.38.65-1.2.53.21-.4,1.32-.65,1.2Z"/><path class="cls-62" d="M15.66,1.55c-.21-.05-.1-1.39.4-1.31.56.1-.12,1.37-.4,1.31Z"/><path class="cls-46" d="M13.79,3.41c-.22-.01-.33-1.35.18-1.35.57,0,.1,1.37-.18,1.35Z"/><path class="cls-2" d="M11.86,2.7c-.21.03-.6-1.26-.1-1.36.56-.11.38,1.32.1,1.36Z"/><path class="cls-65" d="M10.95,4.79c-.21.06-.75-1.18-.27-1.34.54-.18.54,1.26.27,1.34Z"/><path class="cls-55" d="M9.1,3.72c-.21.04-.64-1.24-.14-1.36.56-.13.42,1.31.14,1.36Z"/><path class="cls-30" d="M8,4.38c-.21.05-.73-1.19-.25-1.34.54-.17.52,1.27.25,1.34Z"/><path class="cls-57" d="M6.53,3.96c-.2.08-.9-1.07-.44-1.29.51-.25.7,1.18.44,1.29Z"/><path class="cls-25" d="M6.54,7.01c-.2.09-.92-1.05-.47-1.28.51-.26.73,1.17.47,1.28Z"/><path class="cls-17" d="M6.07,9.31c-.16.14-1.19-.72-.83-1.08.4-.4,1.04.89.83,1.08Z"/><path class="cls-58" d="M3.49,8.21c-.17.14-1.18-.75-.81-1.1.41-.39,1.02.92.81,1.1Z"/><path class="cls-1" d="M.98,7.62c-.15.16-1.25-.63-.91-1.01.37-.43,1.11.81.91,1.01Z"/><path class="cls-44" d="M1.83,10.5c-.13.17-1.31-.49-1.02-.91.32-.47,1.19.69,1.02.91Z"/><path class="cls-64" d="M3.77,13.01c-.09.2-1.38-.18-1.2-.66.21-.53,1.31.4,1.2.66Z"/><path class="cls-24" d="M4.43,14.3c-.07.2-1.39-.07-1.25-.56.17-.55,1.34.29,1.25.56Z"/><path class="cls-29" d="M24.14,19.08c-2.33-.53-5.19-1.49-7.72-3.25-.03-.02-.04-.06-.02-.09.02-.03.06-.04.09-.02,5.3,3.68,12.12,3.86,12.18,3.86.04,0,.07.03.07.07,0,.04-.03.07-.07.07-.04,0-1.95-.05-4.54-.64Z"/><path class="cls-47" d="M20.72,17.33c-1.42-.32-2.88-.8-4.3-1.49-.03-.02-.05-.06-.03-.09.02-.03.06-.05.09-.03,7.59,3.68,16.11,1.32,16.19,1.3.04-.01.07.01.08.05.01.04-.01.07-.05.08-.07.02-5.76,1.6-11.99.19Z"/><path class="cls-32" d="M16.49,15.78s-.06-.04-.05-.08c0-.04.04-.06.08-.05,10.33,1.94,15.48-1.54,15.53-1.58.03-.02.07-.01.09.02s.01.07-.02.09c-.01,0-1.31.9-3.88,1.54-2.36.59-6.32,1.07-11.75.06,0,0,0,0,0,0Z"/><path class="cls-52" d="M16.49,15.78s-.05-.03-.05-.06c0-.04.03-.07.07-.07,9.49-.08,13.01-3.91,13.05-3.95.02-.03.07-.03.09,0,.03.02.03.07,0,.09-.03.04-3.59,3.91-13.14,3.99,0,0-.01,0-.02,0Z"/><path class="cls-63" d="M22.91,18.18c-1.92-.44-4.13-1.16-6.49-2.34-.03-.02-.05-.06-.03-.09.02-.03.06-.05.09-.03,7.42,3.73,13.36,2.87,13.42,2.86.04,0,.07.02.08.06,0,.04-.02.07-.06.08-.04,0-2.85.41-7.01-.53Z"/><path class="cls-13" d="M18.69,16.43c-.74-.17-1.48-.38-2.21-.64-.03-.01-.05-.05-.04-.09.01-.03.05-.05.09-.04,8.51,3.08,18.01-.93,18.1-.97.03-.01.07,0,.09.03.01.03,0,.07-.04.09-.02.01-2.43,1.03-5.85,1.66-2.65.48-6.37.81-10.14-.05Z"/><path class="cls-56" d="M16.49,15.78s-.06-.04-.05-.07c0-.04.04-.06.07-.06,8.01.83,12.65-1.61,12.7-1.64.03-.02.07,0,.09.03s0,.07-.03.09c-.05.02-4.73,2.49-12.78,1.65,0,0,0,0,0,0Z"/><path class="cls-31" d="M16.45,15.83s-.05-.03-.05-.06c0-.04.02-.07.06-.07,7.77-.58,14.58-6.87,14.65-6.94.03-.03.07-.02.09,0,.03.03.02.07,0,.09-.07.06-6.91,6.39-14.73,6.97,0,0-.01,0-.02,0Z"/><path class="cls-33" d="M16.49,15.78s-.04-.02-.05-.05c0-.04.01-.07.05-.08,10.11-2.34,12.76-6.97,12.79-7.02.02-.03.06-.04.09-.03.03.02.04.06.03.09-.03.05-.67,1.2-2.59,2.65-1.76,1.34-4.98,3.2-10.29,4.43-.01,0-.02,0-.03,0Z"/><path class="cls-54" d="M16.49,15.78s-.04-.02-.05-.04c-.01-.04,0-.07.04-.08,9.69-3.15,12.12-8.18,12.14-8.23.02-.03.06-.05.09-.03.03.02.05.06.03.09,0,.01-.61,1.3-2.42,2.95-1.66,1.52-4.71,3.69-9.8,5.35-.01,0-.02,0-.04,0Z"/><path class="cls-11" d="M16.44,15.84s-.04-.02-.05-.04c-.02-.03,0-.07.03-.09,6.9-3.11,10.1-8.06,10.13-8.11.02-.03.06-.04.09-.02.03.02.04.06.02.09-.03.05-3.25,5.04-10.19,8.16-.01,0-.03,0-.04,0Z"/><path class="cls-53" d="M16.44,15.84s-.03-.01-.04-.03c-.02-.03,0-.07.02-.09,6.55-3.79,10.11-10.38,10.15-10.44.02-.03.06-.04.09-.03.03.02.05.06.03.09-.04.07-3.61,6.69-10.2,10.5-.02,0-.03.01-.05,0Z"/><path class="cls-35" d="M16.44,15.84s-.03,0-.03-.02c-.02-.03-.02-.07,0-.09,6.5-5.93,7.92-10.45,7.93-10.5.01-.04.05-.06.08-.04.04.01.06.05.04.08-.01.05-1.44,4.6-7.97,10.56-.02.02-.04.02-.06.02Z"/><path class="cls-37" d="M16.49,15.78s-.02,0-.03-.02c-.03-.03-.03-.07,0-.09,5.72-5.68,6.92-12.95,6.93-13.02,0-.04.04-.06.08-.06.04,0,.06.04.06.08-.01.07-1.21,7.39-6.96,13.1-.02.02-.04.02-.06.02Z"/><path class="cls-9" d="M16.44,15.84s-.02,0-.02-.01c-.03-.02-.04-.06-.02-.09C22.14,7.49,21.16,1.23,21.15,1.17c0-.04.02-.07.05-.08.04,0,.07.02.08.05,0,.02.26,1.6-.2,4.2-.42,2.39-1.56,6.14-4.57,10.47-.02.02-.04.03-.07.03Z"/><path class="cls-61" d="M16.42,15.84c-.05-.03-.04-.07,0-.15.73-1.74,3.14-7.78,3.41-12.22,0-.04.03-.06.07-.06.04,0,.07.03.06.07-.28,4.46-2.69,10.52-3.42,12.27-.01.03-.02.05-.02.06l-.06-.02-.03.06Z"/><path class="cls-51" d="M19.88,3.71c.22.02.55-1.28.04-1.36-.56-.09-.32,1.34-.04,1.36Z"/><path class="cls-34" d="M21.27,1.86c.22,0,.44-1.32-.07-1.36-.57-.04-.21,1.36.07,1.36Z"/><path class="cls-40" d="M23.35,3.23c.21.05.69-1.21.2-1.35-.55-.16-.48,1.29-.2,1.35Z"/><path class="cls-16" d="M24.24,5.71c.2.08.88-1.08.42-1.3-.52-.25-.68,1.19-.42,1.3Z"/><path class="cls-6" d="M26.28,5.91c.18.12,1.08-.88.68-1.18-.46-.35-.91,1.03-.68,1.18Z"/><path class="cls-22" d="M26.21,8.18c.16.14,1.18-.74.82-1.09-.41-.4-1.03.91-.82,1.09Z"/><path class="cls-41" d="M28.34,8.02c.18.13,1.11-.84.71-1.16-.45-.36-.94,1-.71,1.16Z"/><path class="cls-60" d="M29.05,9.08c.17.14,1.17-.76.8-1.11-.42-.39-1.02.92-.8,1.11Z"/><path class="cls-7" d="M30.55,9.34c.14.16,1.27-.58.95-.98-.35-.45-1.14.77-.95.98Z"/><path class="cls-43" d="M29.23,12.08c.14.16,1.28-.55.98-.95-.34-.46-1.16.74-.98.95Z"/><path class="cls-19" d="M28.66,14.37c.08.2,1.39-.13,1.22-.61-.19-.54-1.33.35-1.22.61Z"/><path class="cls-28" d="M31.46,14.49c.09.2,1.38-.17,1.2-.64-.2-.53-1.32.39-1.2.64Z"/><path class="cls-50" d="M33.98,15.04c.07.2,1.39-.03,1.26-.52-.15-.55-1.35.25-1.26.52Z"/><path class="cls-27" d="M31.97,17.27c.05.21,1.39.12,1.31-.38-.09-.56-1.37.11-1.31.38Z"/><path class="cls-4" d="M29.14,18.69c0,.22,1.33.43,1.36-.08.04-.57-1.36-.2-1.36.08Z"/><path class="cls-14" d="M27.98,19.58c-.02.22,1.29.54,1.36.03.09-.57-1.34-.31-1.36-.03Z"/><g><path class="cls-5" d="M16.59,15.87l-3.78,17.85c-.05.22-.26.36-.48.31-.22-.05-.36-.26-.31-.48,0,0,0,0,0-.01l4.29-17.73c.02-.07.09-.12.17-.1.07.02.12.09.1.16Z"/><path class="cls-5" d="M13.61,31.01c-.43,1.9-.68,3.45-1.35,3.3-.67-.15-.22-1.66.21-3.56.43-1.9.92-3.4,1.35-3.3.42.1.22,1.67-.21,3.56Z"/></g></svg>