<svg xmlns="http://www.w3.org/2000/svg" viewBox="0 0 18.89 18.96"><defs><style>
      .cls-1 {
        opacity: .88;
      }

      .cls-1, .cls-2, .cls-3, .cls-4, .cls-5, .cls-6, .cls-7, .cls-8, .cls-9, .cls-10, .cls-11, .cls-12, .cls-13, .cls-14, .cls-15, .cls-16, .cls-17, .cls-18, .cls-19, .cls-20, .cls-21, .cls-22, .cls-23, .cls-24, .cls-25, .cls-26, .cls-27, .cls-28, .cls-29, .cls-30, .cls-31, .cls-32, .cls-33, .cls-34, .cls-35, .cls-36, .cls-37, .cls-38, .cls-39, .cls-40, .cls-41, .cls-42, .cls-43, .cls-44, .cls-45, .cls-46, .cls-47, .cls-48, .cls-49, .cls-50, .cls-51, .cls-52, .cls-53, .cls-54, .cls-55, .cls-56, .cls-57, .cls-58, .cls-59, .cls-60, .cls-61, .cls-62, .cls-63, .cls-64, .cls-65 {
        fill: #117d89;
      }

      .cls-2 {
        opacity: .47;
      }

      .cls-3 {
        opacity: .58;
      }

      .cls-4 {
        opacity: .49;
      }

      .cls-6 {
        opacity: .4;
      }

      .cls-7 {
        opacity: .81;
      }

      .cls-8 {
        opacity: .42;
      }

      .cls-9 {
        opacity: .53;
      }

      .cls-10 {
        opacity: .71;
      }

      .cls-11 {
        opacity: .68;
      }

      .cls-12 {
        opacity: .39;
      }

      .cls-13 {
        opacity: .64;
      }

      .cls-14 {
        opacity: .54;
      }

      .cls-15 {
        opacity: .9;
      }

      .cls-16 {
        opacity: .92;
      }

      .cls-17 {
        opacity: .6;
      }

      .cls-18 {
        opacity: .72;
      }

      .cls-19 {
        opacity: .33;
      }

      .cls-20 {
        opacity: .73;
      }

      .cls-21 {
        opacity: .59;
      }

      .cls-22 {
        opacity: .86;
      }

      .cls-23 {
        opacity: .93;
      }

      .cls-24 {
        opacity: .82;
      }

      .cls-25 {
        opacity: .6;
      }

      .cls-26 {
        opacity: .82;
      }

      .cls-27 {
        opacity: .74;
      }

      .cls-28 {
        opacity: .97;
      }

      .cls-29 {
        opacity: .92;
      }

      .cls-30 {
        opacity: .59;
      }

      .cls-31 {
        opacity: .5;
      }

      .cls-32 {
        opacity: .95;
      }

      .cls-33 {
        opacity: .98;
      }

      .cls-34 {
        opacity: .88;
      }

      .cls-35 {
        opacity: .52;
      }

      .cls-36 {
        opacity: .81;
      }

      .cls-37 {
        opacity: .49;
      }

      .cls-38 {
        opacity: .53;
      }

      .cls-39 {
        opacity: .98;
      }

      .cls-40 {
        opacity: .78;
      }

      .cls-41 {
        opacity: .56;
      }

      .cls-42 {
        opacity: .39;
      }

      .cls-43 {
        opacity: .44;
      }

      .cls-44 {
        opacity: .61;
      }

      .cls-45 {
        opacity: .87;
      }

      .cls-46 {
        opacity: .81;
      }

      .cls-47 {
        opacity: .87;
      }

      .cls-48 {
        opacity: .82;
      }

      .cls-49 {
        opacity: .68;
      }

      .cls-50 {
        opacity: .34;
      }

      .cls-51 {
        opacity: .66;
      }

      .cls-52 {
        opacity: .9;
      }

      .cls-53 {
        opacity: .83;
      }

      .cls-54 {
        opacity: .84;
      }

      .cls-55 {
        opacity: .37;
      }

      .cls-56 {
        opacity: .73;
      }

      .cls-57 {
        opacity: .94;
      }

      .cls-58 {
        opacity: .79;
      }

      .cls-59 {
        opacity: .72;
      }

      .cls-60 {
        opacity: .74;
      }

      .cls-61 {
        opacity: .6;
      }

      .cls-62 {
        opacity: .42;
      }

      .cls-63 {
        opacity: .78;
      }

      .cls-64 {
        opacity: .81;
      }

      .cls-65 {
        opacity: .93;
      }
    </style></defs><path class="cls-3" d="M6.98,12.02c-1.38.71-2.47,1.01-2.49,1.02-.02,0-.04,0-.05-.03,0-.02,0-.04.03-.05.04-.01,3.89-1.1,6.37-3.96.01-.02.04-.02.06,0s.02.04,0,.06c-1.18,1.37-2.67,2.33-3.92,2.97Z"/><path class="cls-39" d="M8.67,10.53c-3.34,1.71-6.8,1.63-6.84,1.63-.02,0-.04-.02-.04-.04s.02-.04.04-.04c.05,0,5.24.11,9.02-3.08.02-.01.04-.01.06,0,.01.02.01.04,0,.06-.71.6-1.46,1.08-2.23,1.47Z"/><path class="cls-59" d="M10.85,9.04s0,0,0,0c-2.94,1.36-5.26,1.66-6.69,1.67-1.55,0-2.42-.31-2.43-.31-.02,0-.03-.03-.02-.05,0-.02.03-.03.05-.02.03.01,3.47,1.24,9.06-1.35.02,0,.04,0,.05.02,0,.02,0,.04-.02.05Z"/><path class="cls-10" d="M10.85,9.04s0,0,0,0c-5.45,1.34-8.03-.35-8.05-.37-.02-.01-.02-.04-.01-.05.01-.02.04-.02.05-.01.03.02,2.58,1.68,7.99.35.02,0,.04,0,.05.03,0,.02,0,.04-.02.04Z"/><path class="cls-20" d="M7.54,11.33c-2.23,1.14-3.88,1.32-3.91,1.32-.02,0-.04-.01-.04-.04,0-.02.01-.04.04-.04.03,0,3.54-.38,7.21-3.57.02-.01.04-.01.06,0,.01.02.01.04,0,.06-1.17,1.01-2.32,1.75-3.35,2.27Z"/><path class="cls-45" d="M9.69,9.72c-2.02,1.03-4.18,1.39-5.76,1.5-2.04.14-3.55-.09-3.57-.1-.02,0-.04-.02-.03-.04,0-.02.02-.04.05-.03.01,0,1.52.23,3.55.1,1.87-.13,4.59-.61,6.88-2.17.02-.01.04,0,.05.01.01.02,0,.04-.01.05-.38.26-.77.48-1.16.69Z"/><path class="cls-38" d="M10.85,9.04s0,0,0,0c-4.46,1.64-7.48.92-7.51.91-.02,0-.03-.03-.03-.05,0-.02.03-.03.05-.03.03,0,3.03.72,7.46-.91.02,0,.04,0,.05.02,0,.02,0,.04-.02.05Z"/><path class="cls-8" d="M10.87,9.06s0,0-.01,0c-4.53.8-9.34-1.8-9.39-1.83-.02-.01-.03-.03-.02-.05.01-.02.03-.03.05-.02.05.03,4.83,2.62,9.33,1.82.02,0,.04.01.05.03,0,.02,0,.03-.02.04Z"/><path class="cls-49" d="M10.85,9.04s-.01,0-.02,0c-3.2.07-5.3-.52-6.49-1.03-1.3-.55-1.83-1.11-1.86-1.13-.01-.02-.01-.04,0-.06.02-.01.04-.01.06,0,.02.02,2.2,2.27,8.29,2.14.02,0,.04.02.04.04,0,.02,0,.03-.02.04Z"/><path class="cls-48" d="M10.85,9.04s-.01,0-.02,0c-3.13-.2-5.18-.99-6.35-1.62-1.27-.68-1.8-1.32-1.8-1.33-.01-.02-.01-.04,0-.06.02-.01.04-.01.06,0,.02.03,2.13,2.53,8.09,2.92.02,0,.04.02.04.04,0,.01,0,.03-.02.03Z"/><path class="cls-36" d="M10.88,9.07s-.02,0-.02,0c-4.4-.77-6.95-3.14-6.98-3.17-.02-.01-.02-.04,0-.06.01-.02.04-.02.06,0,.03.02,2.56,2.38,6.94,3.15.02,0,.04.02.03.05,0,.01-.01.02-.02.03Z"/><path class="cls-23" d="M10.88,9.07s-.02,0-.03,0c-4.3-1.21-7.29-4.46-7.32-4.49-.01-.02-.01-.04,0-.06.02-.01.04-.01.06,0,.03.03,3.01,3.26,7.28,4.47.02,0,.03.03.03.05,0,.01-.01.02-.02.02Z"/><path class="cls-21" d="M10.88,9.07s-.02,0-.04,0c-4.58-2.44-6.05-4.82-6.06-4.85-.01-.02,0-.04.01-.05.02-.01.04,0,.05.01.01.02,1.48,2.39,6.03,4.82.02.01.03.03.02.05,0,0,0,.01-.02.02Z"/><path class="cls-18" d="M10.85,9.04s-.03,0-.04,0C6.71,6.63,4.97,2.64,4.95,2.6c0-.02,0-.04.02-.05.02,0,.04,0,.05.02.02.04,1.75,4,5.83,6.4.02.01.02.04.01.05,0,0,0,.01-.02.02Z"/><path class="cls-26" d="M10.88,9.07s-.03,0-.04,0c-2.34-2.03-3.53-4-4.12-5.29-.64-1.41-.72-2.35-.72-2.36,0-.02.01-.04.04-.04s.04.01.04.04c0,.04.36,3.74,4.81,7.6.02.01.02.04,0,.06,0,0,0,0-.01,0Z"/><path class="cls-12" d="M10.89,9.06l-.05-.06.03.03-.03.02s0-.01-.02-.03c-.67-.89-2.92-3.98-3.72-6.48,0-.02,0-.04.03-.05.02,0,.04,0,.05.03.8,2.49,3.04,5.57,3.71,6.46.03.04.05.06.02.08Z"/><path class="cls-15" d="M7.17,2.67c-.12.04-.5-.65-.22-.77.31-.13.38.71.22.77Z"/><path class="cls-42" d="M6.11,1.82c-.12.03-.44-.69-.16-.79.32-.11.32.74.16.79Z"/><path class="cls-62" d="M5.13,2.89c-.11.06-.57-.59-.31-.74.29-.17.46.66.31.74Z"/><path class="cls-46" d="M4.98,4.44c-.1.08-.66-.49-.43-.68.26-.21.56.58.43.68Z"/><path class="cls-2" d="M3.85,4.84c-.08.09-.74-.34-.56-.58.21-.26.67.45.56.58Z"/><path class="cls-65" d="M4.22,6.13c-.07.1-.78-.25-.62-.5.18-.29.72.37.62.5Z"/><path class="cls-55" d="M2.98,6.34c-.08.1-.75-.32-.57-.56.2-.27.68.43.57.56Z"/><path class="cls-30" d="M2.74,7.05c-.07.1-.78-.26-.62-.51.18-.28.71.38.62.51Z"/><path class="cls-57" d="M1.92,7.41c-.06.11-.81-.14-.68-.42.14-.31.76.27.68.42Z"/><path class="cls-25" d="M3.07,8.78c-.06.11-.81-.12-.69-.4.13-.31.77.25.69.4Z"/><path class="cls-17" d="M3.72,10c-.02.13-.81.13-.78-.17.03-.33.81,0,.78.17Z"/><path class="cls-58" d="M2.15,10.47c-.02.12-.81.11-.78-.19.04-.33.81.03.78.19Z"/><path class="cls-1" d="M.79,11.15c0,.13-.8.19-.79-.11,0-.34.8-.05.79.11Z"/><path class="cls-44" d="M2.26,12.13c0,.13-.77.27-.8-.03-.03-.33.79-.14.8.03Z"/><path class="cls-64" d="M4.08,12.52c.03.12-.69.44-.79.15-.11-.32.74-.31.79-.15Z"/><path class="cls-24" d="M4.86,12.86c.04.12-.65.49-.77.22-.13-.31.72-.37.77-.22Z"/><path class="cls-29" d="M15.54,7.6c-1.25.64-2.9,1.28-4.7,1.44-.02,0-.04-.01-.04-.04,0-.02.01-.04.04-.04,3.77-.33,6.91-2.82,6.94-2.84.02-.01.04-.01.06,0,.01.02.01.04,0,.06-.02.01-.9.71-2.28,1.42Z"/><path class="cls-47" d="M13.34,8.1c-.76.39-1.6.72-2.5.94-.02,0-.04,0-.05-.03,0-.02,0-.04.03-.05,4.81-1.19,7.75-5.46,7.78-5.5.01-.02.04-.02.05-.01.02.01.02.04.01.05-.02.04-1.99,2.89-5.33,4.59Z"/><path class="cls-32" d="M10.85,9s-.04,0-.05-.02c-.01-.02,0-.04.02-.05,5.38-3.01,6.39-6.51,6.4-6.55,0-.02.03-.03.05-.03.02,0,.03.03.03.05,0,0-.25.9-1.17,2.15-.84,1.15-2.44,2.86-5.27,4.44,0,0,0,0,0,0Z"/><path class="cls-52" d="M10.85,9s-.04,0-.05,0c-.01-.02-.01-.04,0-.06,4.24-3.6,4.39-6.65,4.39-6.68,0-.02.02-.04.04-.04.02,0,.04.02.04.04,0,.03-.15,3.11-4.42,6.74,0,0,0,0,0,0Z"/><path class="cls-63" d="M14.64,7.66c-1.03.53-2.3,1.03-3.8,1.38-.02,0-.04,0-.05-.03,0-.02,0-.04.03-.05,4.74-1.11,7.1-3.73,7.12-3.76.01-.02.04-.02.06,0s.02.04,0,.06c-.02.02-1.13,1.26-3.36,2.4Z"/><path class="cls-13" d="M12.08,8.46c-.4.2-.81.38-1.24.54-.02,0-.04,0-.05-.02,0-.02,0-.04.02-.05,4.99-1.81,7.76-7.19,7.79-7.24,0-.02.03-.03.05-.02.02,0,.03.03.02.05,0,.01-.7,1.38-2.01,2.95-1.01,1.21-2.57,2.76-4.58,3.79Z"/><path class="cls-56" d="M10.85,9s-.04,0-.05-.01c-.01-.02,0-.04.01-.05,3.92-2.64,5.09-5.48,5.11-5.51,0-.02.03-.03.05-.02.02,0,.03.03.02.05-.01.03-1.19,2.9-5.13,5.55,0,0,0,0,0,0Z"/><path class="cls-31" d="M10.85,9.03s-.03,0-.05,0c-.02-.02-.01-.04,0-.06C14.09,5.78,14.79.39,14.79.33c0-.02.02-.04.04-.03s.04.02.03.04c0,.05-.71,5.48-4.01,8.68,0,0,0,0,0,0Z"/><path class="cls-33" d="M10.85,9s-.03,0-.04,0c-.02-.01-.02-.04,0-.06,3.67-4.86,3.13-7.94,3.12-7.97,0-.02,0-.04.03-.05.02,0,.04,0,.05.03,0,.03.15.79-.17,2.17-.29,1.27-1.04,3.31-2.97,5.86,0,0,0,0-.01.01Z"/><path class="cls-54" d="M10.85,9s-.03,0-.04,0c-.02-.01-.02-.04-.01-.05C13.98,3.88,13.18.7,13.17.67c0-.02,0-.04.03-.05.02,0,.04,0,.05.03,0,0,.21.82.02,2.24-.18,1.31-.74,3.43-2.4,6.09,0,0,0,.01-.02.01Z"/><path class="cls-11" d="M10.85,9.04s-.02,0-.04,0c-.02,0-.03-.03-.02-.05,1.94-4,1.52-7.43,1.51-7.46,0-.02.01-.04.03-.04.02,0,.04.01.04.03,0,.03.43,3.49-1.52,7.51,0,0-.01.01-.02.02Z"/><path class="cls-53" d="M10.85,9.04s-.02,0-.03,0c-.02,0-.03-.03-.02-.05,1.53-4.17.65-8.48.64-8.52,0-.02,0-.04.03-.05.02,0,.04,0,.05.03,0,.04.89,4.37-.65,8.56,0,0-.01.02-.02.02Z"/><path class="cls-35" d="M10.85,9.04s-.01,0-.02,0c-.02,0-.04-.02-.03-.04.7-5.12-.36-7.69-.37-7.71,0-.02,0-.04.02-.05.02,0,.04,0,.05.02.01.03,1.08,2.61.38,7.75,0,.01-.01.02-.02.03Z"/><path class="cls-37" d="M10.85,9s-.01,0-.02,0c-.02,0-.04-.02-.04-.04.44-4.71-1.75-8.43-1.78-8.47-.01-.02,0-.04.01-.05.02-.01.04,0,.05.01.02.04,2.23,3.78,1.79,8.52,0,.01,0,.03-.02.03Z"/><path class="cls-9" d="M10.85,9.04s0,0-.01,0c-.02,0-.04-.01-.04-.04C10.28,3.14,7.48.68,7.45.66c-.02-.01-.02-.04,0-.06.01-.02.04-.02.06,0,0,0,.72.62,1.49,1.96.71,1.23,1.61,3.35,1.88,6.44,0,.02,0,.03-.02.04Z"/><path class="cls-61" d="M10.84,9.04s-.04-.02-.06-.06c-.33-1.06-1.51-4.68-3.06-6.79-.01-.02,0-.04,0-.06.02-.01.04,0,.06,0,1.55,2.12,2.74,5.75,3.07,6.81,0,.02.01.03.01.04h-.04s0,.05,0,.05Z"/><path class="cls-51" d="M7.84,2.28c.11-.07-.24-.78-.49-.63-.29.17.36.72.49.63Z"/><path class="cls-34" d="M7.77.92c.1-.08-.3-.76-.55-.59-.27.2.42.69.55.59Z"/><path class="cls-40" d="M9.22.76c.11-.06-.14-.81-.42-.68-.31.14.27.76.42.68Z"/><path class="cls-16" d="M10.55,1.54c.12-.04,0-.82-.3-.74-.32.08.14.79.3.74Z"/><path class="cls-6" d="M11.55.86c.13-.01.16-.8-.14-.79-.34.02-.02.81.14.79Z"/><path class="cls-22" d="M12.37,1.92c.13,0,.26-.78-.04-.8-.33-.03-.12.8.04.8Z"/><path class="cls-41" d="M13.27,1.04c.13,0,.18-.8-.12-.79-.34,0-.05.8.12.79Z"/><path class="cls-60" d="M13.99,1.25c.13,0,.24-.78-.06-.8-.33-.02-.11.8.06.8Z"/><path class="cls-7" d="M14.76.8c.13.02.36-.74.06-.8-.33-.07-.23.77-.06.8Z"/><path class="cls-43" d="M15.2,2.54c.12.02.37-.73.08-.8-.33-.08-.24.77-.08.8Z"/><path class="cls-19" d="M15.8,3.78c.11.06.57-.58.32-.74-.29-.17-.46.66-.32.74Z"/><path class="cls-28" d="M17.11,2.78c.11.06.56-.6.3-.74-.29-.16-.45.67-.3.74Z"/><path class="cls-50" d="M18.45,2.08c.11.07.62-.54.37-.71-.27-.19-.51.62-.37.71Z"/><path class="cls-27" d="M18.38,3.84c.1.08.67-.47.45-.67-.25-.22-.58.56-.45.67Z"/><path class="cls-4" d="M17.64,5.55c.08.1.76-.3.58-.55-.2-.27-.69.42-.58.55Z"/><path class="cls-14" d="M17.45,6.38c.07.1.78-.24.63-.5-.17-.29-.72.36-.63.5Z"/><g><path class="cls-5" d="M10.93,8.99l5.01,9.46c.06.12.02.26-.1.32-.12.06-.26.02-.32-.1,0,0,0,0,0,0l-4.73-9.6s0-.09.04-.11c.04-.02.09,0,.11.03Z"/><path class="cls-5" d="M15.28,16.94c.52,1.02.99,1.81.64,1.99-.36.18-.72-.67-1.24-1.68s-.86-1.88-.64-1.99c.23-.12.72.67,1.24,1.68Z"/></g></svg>