<svg xmlns="http://www.w3.org/2000/svg" viewBox="0 0 31.23 30.48"><defs><style>
      .cls-1 {
        opacity: .88;
      }

      .cls-1, .cls-2, .cls-3, .cls-4, .cls-5, .cls-6, .cls-7, .cls-8, .cls-9, .cls-10, .cls-11, .cls-12, .cls-13, .cls-14, .cls-15, .cls-16, .cls-17, .cls-18, .cls-19, .cls-20, .cls-21, .cls-22, .cls-23, .cls-24, .cls-25, .cls-26, .cls-27, .cls-28, .cls-29, .cls-30, .cls-31, .cls-32, .cls-33, .cls-34, .cls-35, .cls-36, .cls-37, .cls-38, .cls-39, .cls-40, .cls-41, .cls-42, .cls-43, .cls-44, .cls-45, .cls-46, .cls-47, .cls-48, .cls-49, .cls-50, .cls-51, .cls-52, .cls-53, .cls-54, .cls-55, .cls-56, .cls-57, .cls-58, .cls-59, .cls-60, .cls-61, .cls-62, .cls-63, .cls-64, .cls-65 {
        fill: #117d89;
      }

      .cls-2 {
        opacity: .47;
      }

      .cls-3 {
        opacity: .58;
      }

      .cls-4 {
        opacity: .49;
      }

      .cls-6 {
        opacity: .4;
      }

      .cls-7 {
        opacity: .81;
      }

      .cls-8 {
        opacity: .42;
      }

      .cls-9 {
        opacity: .53;
      }

      .cls-10 {
        opacity: .71;
      }

      .cls-11 {
        opacity: .68;
      }

      .cls-12 {
        opacity: .39;
      }

      .cls-13 {
        opacity: .64;
      }

      .cls-14 {
        opacity: .54;
      }

      .cls-15 {
        opacity: .9;
      }

      .cls-16 {
        opacity: .92;
      }

      .cls-17 {
        opacity: .6;
      }

      .cls-18 {
        opacity: .72;
      }

      .cls-19 {
        opacity: .33;
      }

      .cls-20 {
        opacity: .73;
      }

      .cls-21 {
        opacity: .59;
      }

      .cls-22 {
        opacity: .86;
      }

      .cls-23 {
        opacity: .93;
      }

      .cls-24 {
        opacity: .82;
      }

      .cls-25 {
        opacity: .6;
      }

      .cls-26 {
        opacity: .82;
      }

      .cls-27 {
        opacity: .74;
      }

      .cls-28 {
        opacity: .97;
      }

      .cls-29 {
        opacity: .92;
      }

      .cls-30 {
        opacity: .59;
      }

      .cls-31 {
        opacity: .5;
      }

      .cls-32 {
        opacity: .95;
      }

      .cls-33 {
        opacity: .98;
      }

      .cls-34 {
        opacity: .88;
      }

      .cls-35 {
        opacity: .52;
      }

      .cls-36 {
        opacity: .81;
      }

      .cls-37 {
        opacity: .49;
      }

      .cls-38 {
        opacity: .53;
      }

      .cls-39 {
        opacity: .98;
      }

      .cls-40 {
        opacity: .78;
      }

      .cls-41 {
        opacity: .56;
      }

      .cls-42 {
        opacity: .39;
      }

      .cls-43 {
        opacity: .44;
      }

      .cls-44 {
        opacity: .61;
      }

      .cls-45 {
        opacity: .87;
      }

      .cls-46 {
        opacity: .81;
      }

      .cls-47 {
        opacity: .87;
      }

      .cls-48 {
        opacity: .82;
      }

      .cls-49 {
        opacity: .68;
      }

      .cls-50 {
        opacity: .34;
      }

      .cls-51 {
        opacity: .66;
      }

      .cls-52 {
        opacity: .9;
      }

      .cls-53 {
        opacity: .83;
      }

      .cls-54 {
        opacity: .84;
      }

      .cls-55 {
        opacity: .37;
      }

      .cls-56 {
        opacity: .73;
      }

      .cls-57 {
        opacity: .94;
      }

      .cls-58 {
        opacity: .79;
      }

      .cls-59 {
        opacity: .72;
      }

      .cls-60 {
        opacity: .74;
      }

      .cls-61 {
        opacity: .6;
      }

      .cls-62 {
        opacity: .42;
      }

      .cls-63 {
        opacity: .78;
      }

      .cls-64 {
        opacity: .81;
      }

      .cls-65 {
        opacity: .93;
      }
    </style></defs><path class="cls-3" d="M9.76,16.91c-2.29.48-3.98.5-4.02.5-.03,0-.06-.03-.06-.06,0-.03.03-.06.06-.06.06,0,6.08-.06,10.82-3.25.03-.02.06-.01.08.02.02.03.01.06-.02.08-2.26,1.52-4.8,2.33-6.87,2.77Z"/><path class="cls-39" d="M12.81,15.4c-5.53,1.17-10.53-.3-10.59-.32-.03,0-.05-.04-.04-.07,0-.03.04-.05.07-.04.07.02,7.57,2.22,14.33-.93.03-.01.06,0,.08.03.01.03,0,.06-.03.08-1.26.59-2.55,1-3.82,1.26Z"/><path class="cls-59" d="M16.57,14.09s0,0,0,0c-4.81.83-8.3.35-10.38-.2-2.26-.6-3.4-1.4-3.41-1.41-.03-.02-.03-.06-.01-.08.02-.03.06-.03.08-.01.04.03,4.55,3.17,13.7,1.59.03,0,.06.02.07.05,0,.03-.02.06-.05.07Z"/><path class="cls-10" d="M16.57,14.09s0,0-.01,0c-8.44-.2-11.53-3.66-11.56-3.7-.02-.02-.02-.06,0-.08.02-.02.06-.02.08,0,.03.03,3.09,3.46,11.48,3.66.03,0,.06.03.06.06,0,.03-.02.05-.05.06Z"/><path class="cls-20" d="M10.86,16.13c-3.69.78-6.17.38-6.2.38-.03,0-.05-.04-.05-.07s.04-.05.07-.05c.05,0,5.29.84,11.89-2.35.03-.01.06,0,.08.03.01.03,0,.06-.03.08-2.1,1.02-4.06,1.63-5.76,1.99Z"/><path class="cls-45" d="M14.62,14.63c-3.34.71-6.63.37-8.96-.09-3.02-.6-5.13-1.53-5.15-1.54-.03-.01-.04-.05-.03-.08.01-.03.05-.04.08-.03.02,0,2.12.94,5.13,1.54,2.77.55,6.91.92,10.86-.45.03-.01.06,0,.08.04s0,.06-.04.08c-.65.22-1.31.4-1.96.54Z"/><path class="cls-38" d="M16.57,14.09s0,0,0,0c-7.12.64-11.23-1.6-11.27-1.63-.03-.02-.04-.05-.02-.08.02-.03.05-.04.08-.02.04.02,4.12,2.25,11.2,1.61.03,0,.06.02.06.05,0,.03-.02.06-.05.06Z"/><path class="cls-8" d="M16.6,14.13s-.01,0-.02,0c-6.9-.61-12.87-6.3-12.92-6.35-.02-.02-.02-.06,0-.08s.06-.02.08,0c.06.06,5.99,5.71,12.85,6.32.03,0,.06.03.05.06,0,.03-.02.05-.05.05Z"/><path class="cls-49" d="M16.57,14.09s-.02,0-.03,0c-4.68-1.16-7.5-2.84-9.03-4.05-1.67-1.31-2.23-2.34-2.25-2.38-.02-.03,0-.06.02-.08.03-.02.06,0,.08.02.02.04,2.31,4.17,11.21,6.37.03,0,.05.04.04.07,0,.02-.02.04-.05.04Z"/><path class="cls-48" d="M16.57,14.09s-.02,0-.03,0c-4.48-1.53-7.14-3.48-8.59-4.85-1.57-1.49-2.09-2.63-2.1-2.64-.01-.03,0-.06.03-.08.03-.01.06,0,.08.03.02.04,2.11,4.52,10.62,7.43.03.01.05.04.04.08,0,.02-.02.03-.04.04Z"/><path class="cls-36" d="M16.61,14.15s-.03,0-.04,0c-6.09-2.85-8.87-7.3-8.9-7.35-.02-.03,0-.06.02-.08.03-.02.06,0,.08.02.03.04,2.79,4.47,8.85,7.3.03.01.04.05.03.08,0,.02-.02.03-.04.03Z"/><path class="cls-23" d="M16.61,14.15s-.03,0-.04,0C10.8,10.68,7.72,4.79,7.69,4.73c-.01-.03,0-.06.03-.08.03-.02.06,0,.08.03.03.06,3.09,5.93,8.83,9.36.03.02.04.05.02.08,0,.01-.02.02-.04.03Z"/><path class="cls-21" d="M16.61,14.15s-.04,0-.05-.01c-5.69-5.35-6.9-9.39-6.91-9.43,0-.03,0-.06.04-.07.03,0,.06,0,.07.04.01.04,1.21,4.05,6.87,9.38.02.02.02.06,0,.08,0,0-.02.01-.03.02Z"/><path class="cls-18" d="M16.57,14.09s-.04,0-.05-.02c-5.01-5.12-5.98-11.6-5.98-11.66,0-.03.02-.06.05-.07.03,0,.06.02.07.05,0,.06.97,6.51,5.95,11.6.02.02.02.06,0,.08,0,0-.02.01-.03.02Z"/><path class="cls-26" d="M16.61,14.15s-.05,0-.06-.02c-2.61-3.87-3.56-7.2-3.9-9.32-.37-2.3-.12-3.7-.12-3.71,0-.03.04-.05.07-.05.03,0,.05.04.05.07-.01.05-.95,5.58,4,12.94.02.03.01.06-.02.08,0,0-.01,0-.02,0Z"/><path class="cls-12" d="M16.63,14.14l-.05-.11.03.05-.06.02s0-.02-.02-.05c-.62-1.56-2.68-6.94-2.87-10.89,0-.03.02-.06.06-.06.03,0,.06.02.06.06.19,3.93,2.23,9.3,2.86,10.85.03.07.04.1,0,.13Z"/><path class="cls-15" d="M13.72,3.38c-.19.02-.47-1.14-.02-1.21.5-.07.27,1.18.02,1.21Z"/><path class="cls-42" d="M12.52,1.73c-.19,0-.37-1.18.08-1.2.5-.03.17,1.2-.08,1.2Z"/><path class="cls-62" d="M10.67,2.91c-.19.04-.6-1.08-.16-1.2.49-.13.41,1.14.16,1.2Z"/><path class="cls-46" d="M9.85,5.09c-.18.07-.77-.97-.36-1.15.46-.21.59,1.06.36,1.15Z"/><path class="cls-2" d="M8.04,5.24c-.16.1-.95-.79-.58-1.06.41-.3.79.92.58,1.06Z"/><path class="cls-65" d="M8.08,7.25c-.15.12-1.04-.67-.71-.98.37-.35.9.82.71.98Z"/><path class="cls-55" d="M6.2,7.08c-.16.11-.97-.76-.61-1.04.4-.31.82.9.61,1.04Z"/><path class="cls-30" d="M5.55,8.01c-.15.12-1.03-.68-.69-.99.37-.34.89.83.69.99Z"/><path class="cls-57" d="M4.22,8.21c-.13.14-1.11-.53-.83-.88.32-.39,1,.69.83.88Z"/><path class="cls-25" d="M5.36,10.66c-.13.14-1.13-.5-.85-.86.31-.4,1.01.67.85.86Z"/><path class="cls-17" d="M5.83,12.68c-.08.17-1.22-.14-1.07-.56.17-.47,1.17.33,1.07.56Z"/><path class="cls-58" d="M3.35,12.75c-.08.17-1.22-.17-1.05-.59.19-.47,1.16.36,1.05.59Z"/><path class="cls-1" d="M1.12,13.21c-.06.18-1.23-.04-1.11-.48.14-.49,1.19.24,1.11.48Z"/><path class="cls-44" d="M2.87,15.2c-.04.19-1.23.09-1.15-.36.09-.5,1.21.11,1.15.36Z"/><path class="cls-64" d="M5.35,16.5c0,.19-1.18.36-1.2-.09-.03-.5,1.2-.16,1.2.09Z"/><path class="cls-24" d="M6.36,17.29c.02.19-1.14.46-1.21.01-.07-.5,1.19-.26,1.21-.01Z"/><path class="cls-29" d="M23.95,13.85c-2.06.44-4.72.72-7.4.25-.03,0-.05-.04-.05-.07,0-.03.04-.05.07-.05,5.62,1,11.15-1.38,11.21-1.4.03-.01.06,0,.08.03.01.03,0,.06-.03.08-.03.01-1.58.68-3.88,1.17Z"/><path class="cls-47" d="M20.56,13.71c-1.26.27-2.6.42-4,.39-.03,0-.06-.03-.06-.06,0-.03.03-.06.06-.06,7.46.15,13.42-4.89,13.48-4.94.02-.02.06-.02.08,0,.02.02.02.06,0,.08-.05.04-4.03,3.41-9.56,4.58Z"/><path class="cls-32" d="M16.59,14.03s-.06-.01-.07-.04c0-.03.01-.06.04-.07,9.01-2.26,11.86-6.95,11.88-7,.02-.03.05-.04.08-.02s.04.05.02.08c0,.01-.72,1.21-2.55,2.67-1.68,1.35-4.68,3.2-9.41,4.39,0,0,0,0,0,0Z"/><path class="cls-52" d="M16.59,14.03s-.05,0-.07-.03c-.01-.03,0-.06.03-.08,7.59-3.57,9-7.94,9.02-7.99,0-.03.04-.05.07-.04.03,0,.05.04.04.07-.01.04-1.44,4.47-9.08,8.06,0,0,0,0-.01,0Z"/><path class="cls-63" d="M22.63,13.58c-1.7.36-3.74.6-6.07.52-.03,0-.06-.03-.06-.06s.03-.06.06-.06c7.33.25,11.78-2.63,11.83-2.66.03-.02.06-.01.08.02.02.03.01.06-.02.08-.03.02-2.14,1.38-5.82,2.16Z"/><path class="cls-13" d="M18.59,13.73c-.65.14-1.33.24-2.01.3-.03,0-.06-.02-.06-.05,0-.03.02-.06.05-.06,7.97-.67,14.12-7.4,14.18-7.46.02-.02.06-.03.08,0,.02.02.03.06,0,.08-.02.02-1.57,1.73-4.09,3.5-1.95,1.37-4.82,3-8.16,3.71Z"/><path class="cls-56" d="M16.59,14.03s-.06-.01-.07-.04c-.01-.03,0-.06.04-.08,6.74-2.29,9.56-5.97,9.59-6.01.02-.03.06-.03.08-.01.03.02.03.06.01.08-.03.04-2.88,3.75-9.65,6.05,0,0,0,0,0,0Z"/><path class="cls-31" d="M16.58,14.07s-.05,0-.06-.03c-.02-.03,0-.06.02-.08,6.03-3.33,9.17-10.9,9.2-10.98.01-.03.05-.04.08-.03.03.01.04.05.03.08-.03.08-3.19,7.69-9.25,11.04,0,0-.01,0-.02,0Z"/><path class="cls-33" d="M16.59,14.03s-.04,0-.06-.02c-.02-.03-.02-.06.01-.08,7.25-5.62,7.67-10.31,7.67-10.36,0-.03.03-.06.06-.05.03,0,.06.03.05.06,0,.05-.1,1.21-1.1,3.09-.92,1.73-2.81,4.41-6.62,7.36,0,0-.02,0-.02.01Z"/><path class="cls-54" d="M16.59,14.03s-.04,0-.06-.02c-.02-.02-.02-.06,0-.08,6.61-6.11,6.71-11.04,6.71-11.09,0-.03.03-.06.06-.06.03,0,.06.03.06.06,0,.01-.01,1.27-.85,3.27-.77,1.84-2.42,4.7-5.89,7.91,0,0-.02.01-.03.01Z"/><path class="cls-11" d="M16.57,14.09s-.04,0-.05-.01c-.02-.02-.03-.06,0-.08,4.39-5.05,5.13-10.21,5.14-10.26,0-.03.03-.06.07-.05.03,0,.06.03.05.07,0,.05-.75,5.25-5.16,10.32,0,.01-.02.02-.03.02Z"/><path class="cls-53" d="M16.57,14.09s-.03,0-.05,0c-.03-.02-.03-.06-.01-.08,3.86-5.46,4.28-12.07,4.29-12.14,0-.03.03-.06.06-.06.03,0,.06.03.06.06,0,.07-.43,6.7-4.31,12.2,0,.01-.02.02-.04.02Z"/><path class="cls-35" d="M16.57,14.09s-.02,0-.04,0c-.03-.01-.04-.05-.03-.08,3.03-7.16,2.5-11.32,2.49-11.36,0-.03.02-.06.05-.07.03,0,.06.02.07.05,0,.04.54,4.23-2.5,11.42,0,.02-.02.03-.04.03Z"/><path class="cls-37" d="M16.59,14.03s-.02,0-.03,0c-.03-.01-.05-.05-.03-.08,2.5-6.67.77-12.95.75-13.01,0-.03,0-.06.04-.07.03,0,.06,0,.07.04.02.06,1.76,6.38-.75,13.09,0,.02-.02.03-.04.04Z"/><path class="cls-9" d="M16.57,14.09s-.01,0-.02,0c-.03,0-.05-.04-.05-.07,1.56-8.74-1.54-13.41-1.57-13.45-.02-.03-.01-.06.02-.08.03-.02.06-.01.08.02,0,.01.8,1.19,1.39,3.44.54,2.07,1.02,5.51.2,10.1,0,.02-.02.04-.05.05Z"/><path class="cls-61" d="M16.55,14.09c-.05,0-.06-.04-.06-.12-.06-1.67-.36-7.41-1.78-11.07-.01-.03,0-.06.03-.08.03-.01.06,0,.08.03,1.43,3.69,1.73,9.44,1.78,11.11,0,.03,0,.05,0,.06h-.06s0,.06,0,.06Z"/><path class="cls-51" d="M14.85,3.08c.18-.06-.03-1.23-.47-1.11-.49.14.23,1.19.47,1.11Z"/><path class="cls-34" d="M15.29,1.08c.17-.08-.14-1.22-.56-1.07-.47.18.33,1.17.56,1.07Z"/><path class="cls-40" d="M17.46,1.41c.19-.04.11-1.23-.33-1.16-.5.08.09,1.21.33,1.16Z"/><path class="cls-16" d="M19.09,3.08c.19,0,.31-1.19-.14-1.2-.51,0-.11,1.21.14,1.2Z"/><path class="cls-6" d="M20.8,2.48c.19.03.55-1.1.11-1.2-.49-.11-.35,1.16-.11,1.2Z"/><path class="cls-22" d="M21.58,4.33c.18.05.68-1.03.25-1.18-.48-.17-.49,1.11-.25,1.18Z"/><path class="cls-41" d="M23.23,3.42c.19.04.58-1.09.14-1.2-.49-.12-.39,1.15-.14,1.2Z"/><path class="cls-60" d="M24.2,4.01c.18.05.66-1.04.23-1.18-.48-.16-.47,1.12-.23,1.18Z"/><path class="cls-7" d="M25.5,3.66c.18.08.81-.93.41-1.14-.45-.23-.63,1.04-.41,1.14Z"/><path class="cls-43" d="M25.45,6.35c.17.08.83-.91.43-1.13-.44-.24-.66,1.02-.43,1.13Z"/><path class="cls-19" d="M25.83,8.39c.14.13,1.06-.62.75-.94-.35-.36-.93.78-.75.94Z"/><path class="cls-28" d="M28.13,7.46c.14.13,1.05-.65.73-.96-.36-.35-.92.8-.73.96Z"/><path class="cls-50" d="M30.36,6.97c.13.14,1.11-.54.82-.88-.32-.39-.99.7-.82.88Z"/><path class="cls-27" d="M29.57,9.5c.11.15,1.16-.42.91-.79-.28-.42-1.06.59-.91.79Z"/><path class="cls-4" d="M27.82,11.69c.08.17,1.22-.14,1.07-.57-.18-.47-1.17.34-1.07.57Z"/><path class="cls-14" d="M27.22,12.83c.06.18,1.23-.04,1.11-.48-.14-.49-1.19.24-1.11.48Z"/><g><path class="cls-5" d="M16.7,14.06l3.56,15.72c.04.19-.08.38-.27.43-.19.04-.38-.08-.43-.27,0,0,0,0,0-.01l-3.1-15.82c-.01-.07.03-.13.1-.14.06-.01.13.03.14.09Z"/><path class="cls-5" d="M19.91,27.32c.36,1.68.73,3.02.14,3.15-.59.13-.79-1.26-1.15-2.94-.36-1.68-.51-3.07-.14-3.15.37-.08.79,1.26,1.15,2.94Z"/></g></svg>