<svg xmlns="http://www.w3.org/2000/svg" viewBox="0 0 29.69 29.25"><defs><style>
      .cls-1 {
        opacity: .88;
      }

      .cls-1, .cls-2, .cls-3, .cls-4, .cls-5, .cls-6, .cls-7, .cls-8, .cls-9, .cls-10, .cls-11, .cls-12, .cls-13, .cls-14, .cls-15, .cls-16, .cls-17, .cls-18, .cls-19, .cls-20, .cls-21, .cls-22, .cls-23, .cls-24, .cls-25, .cls-26, .cls-27, .cls-28, .cls-29, .cls-30, .cls-31, .cls-32, .cls-33, .cls-34, .cls-35, .cls-36, .cls-37, .cls-38, .cls-39, .cls-40, .cls-41, .cls-42, .cls-43, .cls-44, .cls-45, .cls-46, .cls-47, .cls-48, .cls-49, .cls-50, .cls-51, .cls-52, .cls-53, .cls-54, .cls-55, .cls-56, .cls-57, .cls-58, .cls-59, .cls-60, .cls-61, .cls-62, .cls-63, .cls-64, .cls-65 {
        fill: #117d89;
      }

      .cls-2 {
        opacity: .47;
      }

      .cls-3 {
        opacity: .58;
      }

      .cls-4 {
        opacity: .49;
      }

      .cls-6 {
        opacity: .4;
      }

      .cls-7 {
        opacity: .81;
      }

      .cls-8 {
        opacity: .42;
      }

      .cls-9 {
        opacity: .53;
      }

      .cls-10 {
        opacity: .71;
      }

      .cls-11 {
        opacity: .68;
      }

      .cls-12 {
        opacity: .39;
      }

      .cls-13 {
        opacity: .64;
      }

      .cls-14 {
        opacity: .54;
      }

      .cls-15 {
        opacity: .9;
      }

      .cls-16 {
        opacity: .92;
      }

      .cls-17 {
        opacity: .6;
      }

      .cls-18 {
        opacity: .72;
      }

      .cls-19 {
        opacity: .33;
      }

      .cls-20 {
        opacity: .73;
      }

      .cls-21 {
        opacity: .59;
      }

      .cls-22 {
        opacity: .86;
      }

      .cls-23 {
        opacity: .93;
      }

      .cls-24 {
        opacity: .82;
      }

      .cls-25 {
        opacity: .6;
      }

      .cls-26 {
        opacity: .82;
      }

      .cls-27 {
        opacity: .74;
      }

      .cls-28 {
        opacity: .97;
      }

      .cls-29 {
        opacity: .92;
      }

      .cls-30 {
        opacity: .59;
      }

      .cls-31 {
        opacity: .5;
      }

      .cls-32 {
        opacity: .95;
      }

      .cls-33 {
        opacity: .98;
      }

      .cls-34 {
        opacity: .88;
      }

      .cls-35 {
        opacity: .52;
      }

      .cls-36 {
        opacity: .81;
      }

      .cls-37 {
        opacity: .49;
      }

      .cls-38 {
        opacity: .53;
      }

      .cls-39 {
        opacity: .98;
      }

      .cls-40 {
        opacity: .78;
      }

      .cls-41 {
        opacity: .56;
      }

      .cls-42 {
        opacity: .39;
      }

      .cls-43 {
        opacity: .44;
      }

      .cls-44 {
        opacity: .61;
      }

      .cls-45 {
        opacity: .87;
      }

      .cls-46 {
        opacity: .81;
      }

      .cls-47 {
        opacity: .87;
      }

      .cls-48 {
        opacity: .82;
      }

      .cls-49 {
        opacity: .68;
      }

      .cls-50 {
        opacity: .34;
      }

      .cls-51 {
        opacity: .66;
      }

      .cls-52 {
        opacity: .9;
      }

      .cls-53 {
        opacity: .83;
      }

      .cls-54 {
        opacity: .84;
      }

      .cls-55 {
        opacity: .37;
      }

      .cls-56 {
        opacity: .73;
      }

      .cls-57 {
        opacity: .94;
      }

      .cls-58 {
        opacity: .79;
      }

      .cls-59 {
        opacity: .72;
      }

      .cls-60 {
        opacity: .74;
      }

      .cls-61 {
        opacity: .6;
      }

      .cls-62 {
        opacity: .42;
      }

      .cls-63 {
        opacity: .78;
      }

      .cls-64 {
        opacity: .81;
      }

      .cls-65 {
        opacity: .93;
      }
    </style></defs><path class="cls-3" d="M5.87,12.23c-2.17-.87-3.59-1.8-3.62-1.81-.03-.02-.03-.05-.02-.08.02-.03.06-.03.08-.02.05.03,5.09,3.33,10.8,3.31.03,0,.06.03.06.06s-.03.06-.06.06c-2.72,0-5.29-.73-7.25-1.51Z"/><path class="cls-39" d="M9.24,12.68C3.99,10.57.65,6.57.61,6.52c-.02-.03-.02-.06,0-.08.03-.02.06-.02.08,0,.05.06,5.06,6.05,12.43,7.18.03,0,.05.04.05.07,0,.03-.04.05-.07.05-1.38-.21-2.68-.59-3.87-1.07Z"/><path class="cls-59" d="M13.09,13.68s0,0,0,0c-4.46-1.98-7.09-4.32-8.52-5.94-1.55-1.75-2.05-3.06-2.05-3.07-.01-.03,0-.06.03-.08s.06,0,.08.03c.02.05,2.02,5.16,10.5,8.94.03.01.04.05.03.08-.01.03-.05.04-.08.03Z"/><path class="cls-10" d="M13.09,13.68s0,0-.01,0C6.17,8.82,5.53,4.22,5.52,4.17c0-.03.02-.06.05-.07s.06.02.07.05c0,.05.65,4.6,7.51,9.42.03.02.03.06.01.08-.02.02-.05.03-.07.02Z"/><path class="cls-20" d="M7.21,12.2c-3.5-1.4-5.34-3.11-5.37-3.13-.02-.02-.02-.06,0-.08.02-.02.06-.02.08,0,.04.04,3.93,3.64,11.2,4.65.03,0,.06.03.05.07,0,.03-.03.06-.07.05-2.31-.32-4.28-.9-5.9-1.55Z"/><path class="cls-45" d="M11.17,13.04c-3.17-1.27-5.72-3.38-7.4-5.06C1.59,5.81.36,3.86.35,3.84c-.02-.03,0-.06.02-.08.03-.02.06,0,.08.02.01.02,1.24,1.96,3.41,4.13,2,2,5.23,4.6,9.27,5.66.03,0,.05.04.04.07s-.04.05-.07.04c-.67-.17-1.31-.39-1.93-.64Z"/><path class="cls-38" d="M13.09,13.68s0,0,0,0c-6.28-3.43-8.44-7.58-8.47-7.62-.01-.03,0-.06.03-.08.03-.01.06,0,.08.03.02.04,2.18,4.16,8.42,7.57.03.02.04.05.02.08-.01.03-.05.04-.07.03Z"/><path class="cls-8" d="M13.09,13.72s-.01,0-.02,0C7.68,9.37,5.88,1.33,5.86,1.25c0-.03.01-.06.05-.07s.06.01.07.05c.02.08,1.81,8.08,7.17,12.4.03.02.03.06,0,.08-.02.02-.04.03-.07.02Z"/><path class="cls-49" d="M13.09,13.68s-.02,0-.02-.02c-3.25-3.56-4.65-6.53-5.26-8.39-.66-2.02-.55-3.18-.55-3.23,0-.03.03-.06.06-.05.03,0,.06.03.05.06,0,.05-.4,4.75,5.78,11.53.02.02.02.06,0,.08-.02.02-.04.02-.06.01Z"/><path class="cls-48" d="M13.09,13.68s-.02-.01-.02-.02c-2.87-3.76-4-6.86-4.44-8.81-.48-2.11-.28-3.35-.28-3.36,0-.03.04-.05.07-.05.03,0,.05.04.05.07,0,.05-.76,4.93,4.7,12.08.02.03.01.06-.01.08-.02.01-.04.02-.06,0Z"/><path class="cls-36" d="M13.1,13.74s-.02-.01-.03-.02c-3.48-5.76-3.31-11-3.31-11.05,0-.03.03-.06.06-.06.03,0,.06.03.06.06,0,.05-.16,5.26,3.3,10.99.02.03,0,.06-.02.08-.02,0-.04.01-.05,0Z"/><path class="cls-23" d="M13.1,13.74s-.02-.02-.03-.03C10.19,7.64,10.91,1.02,10.92.96c0-.03.03-.06.07-.05.03,0,.06.03.05.07,0,.07-.72,6.64,2.14,12.69.01.03,0,.06-.03.08-.02,0-.03,0-.05,0Z"/><path class="cls-21" d="M13.1,13.74s-.03-.02-.04-.04c-1.76-7.61-.51-11.64-.5-11.68,0-.03.04-.05.07-.04.03.01.05.04.04.07-.01.04-1.25,4.04.5,11.62,0,.03-.01.06-.04.07-.01,0-.02,0-.04,0Z"/><path class="cls-18" d="M13.09,13.68s-.03-.02-.04-.04c-1.32-7.04,1.48-12.96,1.51-13.02.01-.03.05-.04.08-.03.03.01.04.05.03.08-.03.06-2.81,5.95-1.5,12.95,0,.03-.02.06-.05.07-.01,0-.02,0-.03,0Z"/><path class="cls-26" d="M13.1,13.74s-.04-.03-.04-.05c-.02-4.66,1.04-7.96,1.93-9.91.97-2.11,1.95-3.14,1.96-3.15.02-.02.06-.02.08,0,.02.02.02.06,0,.08-.04.04-3.89,4.11-3.86,12.98,0,.03-.03.06-.06.06,0,0-.02,0-.02,0Z"/><path class="cls-12" d="M13.11,13.75v-.12s0,.06,0,.06l-.06-.02s0-.02.01-.05c.35-1.64,1.63-7.25,3.67-10.64.02-.03.05-.04.08-.02.03.02.04.05.02.08-2.03,3.37-3.31,8.97-3.65,10.61-.02.07-.02.11-.08.1Z"/><path class="cls-15" d="M16.68,3.19c-.17-.09.25-1.21.65-1.01.46.22-.43,1.13-.65,1.01Z"/><path class="cls-42" d="M16.6,1.15c-.16-.11.35-1.18.74-.95.44.26-.53,1.09-.74.95Z"/><path class="cls-62" d="M14.4,1.1c-.18-.07.1-1.23.53-1.08.48.16-.3,1.18-.53,1.08Z"/><path class="cls-46" d="M12.51,2.46c-.19-.04-.1-1.23.34-1.16.5.08-.1,1.21-.34,1.16Z"/><path class="cls-2" d="M10.92,1.57c-.19,0-.35-1.18.1-1.2.5-.02.15,1.21-.1,1.2Z"/><path class="cls-65" d="M9.84,3.27c-.19.02-.49-1.13-.05-1.21.5-.08.29,1.18.05,1.21Z"/><path class="cls-55" d="M8.37,2.08c-.19,0-.38-1.17.07-1.2.5-.04.18,1.2-.07,1.2Z"/><path class="cls-30" d="M7.32,2.5c-.19.02-.47-1.14-.03-1.21.5-.08.28,1.18.03,1.21Z"/><path class="cls-57" d="M6.09,1.93c-.19.05-.63-1.06-.2-1.19.48-.15.45,1.13.2,1.19Z"/><path class="cls-25" d="M5.68,4.59c-.18.05-.66-1.04-.23-1.18.48-.16.47,1.12.23,1.18Z"/><path class="cls-17" d="M4.95,6.54c-.16.1-.94-.79-.58-1.06.41-.3.79.92.58,1.06Z"/><path class="cls-58" d="M2.85,5.22c-.16.1-.92-.82-.55-1.07.42-.29.76.94.55,1.07Z"/><path class="cls-1" d="M.74,4.35c-.15.11-1-.72-.66-1.01.39-.33.86.86.66,1.01Z"/><path class="cls-44" d="M1.08,6.98c-.14.13-1.07-.61-.76-.94.35-.37.94.77.76.94Z"/><path class="cls-64" d="M2.43,9.44c-.11.16-1.18-.35-.95-.74.26-.44,1.09.53.95.74Z"/><path class="cls-24" d="M2.82,10.66c-.09.17-1.21-.26-1.01-.66.22-.45,1.13.44,1.01.66Z"/><path class="cls-29" d="M19.36,17.57c-1.96-.78-4.33-2.02-6.29-3.91-.02-.02-.02-.06,0-.08.02-.02.06-.02.08,0,4.12,3.95,10.04,5.05,10.1,5.06.03,0,.05.04.05.07,0,.03-.04.05-.07.05-.03,0-1.7-.31-3.87-1.19Z"/><path class="cls-47" d="M16.62,15.57c-1.2-.48-2.4-1.1-3.54-1.9-.03-.02-.03-.06-.01-.08s.06-.03.08-.01c6.11,4.27,13.87,3.39,13.95,3.38.03,0,.06.02.07.05s-.02.06-.05.07c-.06,0-5.25.6-10.49-1.51Z"/><path class="cls-32" d="M13.14,13.63s-.04-.04-.03-.07c.01-.03.04-.05.08-.04,8.75,3.13,13.72.81,13.77.78.03-.01.06,0,.08.03.01.03,0,.06-.03.08-.01,0-1.27.6-3.6.8-2.15.18-5.67.06-10.26-1.58,0,0,0,0,0,0Z"/><path class="cls-52" d="M13.14,13.63s-.04-.04-.04-.06c0-.03.03-.05.07-.05,8.29,1.25,11.9-1.6,11.94-1.63.03-.02.06-.02.08,0,.02.03.02.06,0,.08-.04.03-3.68,2.91-12.03,1.66,0,0,0,0-.01,0Z"/><path class="cls-63" d="M18.41,16.62c-1.62-.65-3.44-1.59-5.34-2.95-.03-.02-.03-.06-.01-.08.02-.03.06-.03.08-.01,5.96,4.28,11.26,4.36,11.31,4.36.03,0,.06.03.06.06,0,.03-.03.06-.06.06-.04,0-2.55-.04-6.04-1.44Z"/><path class="cls-13" d="M14.97,14.5c-.62-.25-1.24-.54-1.84-.87-.03-.02-.04-.05-.02-.08.02-.03.05-.04.08-.02,7,3.87,15.84,1.7,15.93,1.67.03,0,.06.01.07.04s-.01.06-.04.07c-.02,0-2.26.56-5.34.64-2.38.05-5.67-.18-8.84-1.45Z"/><path class="cls-56" d="M13.14,13.63s-.04-.04-.04-.07c0-.03.04-.05.07-.04,6.87,1.84,11.27.35,11.31.34.03-.01.06,0,.08.04.01.03,0,.06-.04.08-.04.02-4.47,1.52-11.38-.33,0,0,0,0,0,0Z"/><path class="cls-31" d="M13.11,13.67s-.04-.03-.04-.06c0-.03.03-.06.06-.05,6.86.58,13.68-3.97,13.75-4.02.03-.02.06-.01.08.02.02.03.01.06-.02.08-.07.05-6.92,4.62-13.83,4.04,0,0-.01,0-.02,0Z"/><path class="cls-33" d="M13.14,13.63s-.04-.03-.04-.05c0-.03.02-.06.05-.06,9.15-.64,12.11-4.31,12.14-4.35.02-.03.06-.03.08-.01.03.02.03.06.01.08-.03.04-.75.95-2.63,1.96-1.72.93-4.79,2.1-9.6,2.44,0,0-.02,0-.03,0Z"/><path class="cls-54" d="M13.14,13.63s-.03-.02-.04-.05c0-.03.02-.06.05-.07,8.89-1.4,11.71-5.45,11.74-5.49.02-.03.06-.03.08-.02.03.02.03.06.02.08,0,.01-.72,1.05-2.52,2.24-1.66,1.1-4.63,2.57-9.3,3.3-.01,0-.02,0-.03,0Z"/><path class="cls-11" d="M13.09,13.68s-.03-.02-.04-.04c0-.03.01-.06.04-.07,6.46-1.75,9.94-5.63,9.97-5.67.02-.02.06-.03.08,0,.02.02.03.06,0,.08-.03.04-3.54,3.95-10.03,5.71-.01,0-.03,0-.04,0Z"/><path class="cls-53" d="M13.09,13.68s-.03-.02-.03-.03c-.01-.03,0-.06.03-.08,6.25-2.4,10.27-7.65,10.31-7.71.02-.03.06-.03.08-.01.03.02.03.06.01.08-.04.05-4.08,5.33-10.36,7.74-.01,0-.03,0-.04,0Z"/><path class="cls-35" d="M13.09,13.68s-.02-.01-.03-.02c-.02-.03-.01-.06.02-.08,6.5-4.27,8.37-8.02,8.38-8.06.01-.03.05-.04.08-.03.03.01.04.05.03.08-.02.04-1.9,3.81-8.43,8.11-.02.01-.04.01-.05,0Z"/><path class="cls-37" d="M13.14,13.63s-.02-.01-.03-.02c-.02-.03-.01-.06.01-.08,5.79-4.16,7.84-10.34,7.86-10.4.01-.03.04-.05.07-.04.03.01.05.04.04.07-.02.06-2.08,6.28-7.9,10.46-.02.01-.04.01-.06,0Z"/><path class="cls-9" d="M13.09,13.68s-.01,0-.02-.01c-.02-.02-.02-.06,0-.08,6.15-6.4,6.17-12,6.17-12.06,0-.03.03-.06.06-.06.03,0,.06.03.06.06,0,.01,0,1.44-.76,3.63-.7,2.02-2.22,5.14-5.45,8.51-.02.02-.04.02-.06.01Z"/><path class="cls-61" d="M13.08,13.67s-.02-.06.02-.13c.88-1.42,3.82-6.35,4.68-10.19,0-.03.04-.05.07-.04.03,0,.05.04.04.07-.86,3.86-3.81,8.81-4.69,10.23-.02.03-.03.04-.03.05l-.05-.03-.04.05Z"/><path class="cls-51" d="M17.79,3.57c.18.05.66-1.04.23-1.18-.48-.16-.47,1.12-.23,1.18Z"/><path class="cls-34" d="M19.26,2.15c.19.03.56-1.1.13-1.2-.49-.12-.37,1.16-.13,1.2Z"/><path class="cls-40" d="M20.88,3.63c.18.07.77-.96.37-1.15-.46-.21-.6,1.06-.37,1.15Z"/><path class="cls-16" d="M21.31,5.92c.16.1.92-.82.55-1.07-.42-.29-.76.95-.55,1.07Z"/><path class="cls-6" d="M23.07,6.37c.14.13,1.07-.61.76-.94-.35-.36-.94.77-.76.94Z"/><path class="cls-22" d="M22.68,8.35c.12.15,1.14-.48.87-.84-.3-.4-1.03.65-.87.84Z"/><path class="cls-41" d="M24.57,8.5c.14.13,1.09-.58.78-.92-.34-.38-.96.74-.78.92Z"/><path class="cls-60" d="M25.04,9.53c.13.14,1.13-.5.85-.85-.31-.4-1.02.67-.85.85Z"/><path class="cls-7" d="M26.32,9.97c.1.16,1.19-.33.97-.72-.25-.44-1.1.51-.97.72Z"/><path class="cls-43" d="M24.78,12.17c.1.16,1.2-.3.98-.7-.24-.45-1.11.48-.98.7Z"/><path class="cls-19" d="M23.96,14.09c.05.19,1.23.08,1.15-.37-.09-.5-1.21.13-1.15.37Z"/><path class="cls-28" d="M26.39,14.59c.05.18,1.23.05,1.14-.4-.1-.49-1.2.15-1.14.4Z"/><path class="cls-50" d="M28.52,15.42c.03.19,1.22.17,1.17-.28-.05-.5-1.21.03-1.17.28Z"/><path class="cls-27" d="M26.45,17.08c.01.19,1.2.3,1.2-.15,0-.51-1.21-.1-1.2.15Z"/><path class="cls-4" d="M23.78,17.93c-.03.19,1.1.56,1.2.12.12-.49-1.16-.37-1.2-.12Z"/><path class="cls-14" d="M22.65,18.54c-.05.19,1.05.65,1.19.22.15-.48-1.12-.46-1.19-.22Z"/><g><path class="cls-5" d="M13.22,13.72l-5.78,15.05c-.07.18-.28.27-.46.2-.18-.07-.27-.28-.2-.46,0,0,0,0,0,0l6.21-14.88c.03-.06.1-.09.16-.07.06.03.09.09.07.16Z"/><path class="cls-5" d="M8.51,26.53c-.64,1.59-1.07,2.92-1.63,2.7-.56-.23.04-1.48.68-3.08.64-1.59,1.28-2.84,1.63-2.7s-.04,1.48-.68,3.08Z"/></g></svg>