<svg xmlns="http://www.w3.org/2000/svg" viewBox="0 0 57.5 55.61"><defs><style>
      .cls-1 {
        opacity: .88;
      }

      .cls-1, .cls-2, .cls-3, .cls-4, .cls-5, .cls-6, .cls-7, .cls-8, .cls-9, .cls-10, .cls-11, .cls-12, .cls-13, .cls-14, .cls-15, .cls-16, .cls-17, .cls-18, .cls-19, .cls-20, .cls-21, .cls-22, .cls-23, .cls-24, .cls-25, .cls-26, .cls-27, .cls-28, .cls-29, .cls-30, .cls-31, .cls-32, .cls-33, .cls-34, .cls-35, .cls-36, .cls-37, .cls-38, .cls-39, .cls-40, .cls-41, .cls-42, .cls-43, .cls-44, .cls-45, .cls-46, .cls-47, .cls-48, .cls-49, .cls-50, .cls-51, .cls-52, .cls-53, .cls-54, .cls-55, .cls-56, .cls-57, .cls-58, .cls-59, .cls-60, .cls-61, .cls-62, .cls-63, .cls-64, .cls-65 {
        fill: #117d89;
      }

      .cls-2 {
        opacity: .47;
      }

      .cls-3 {
        opacity: .58;
      }

      .cls-4 {
        opacity: .49;
      }

      .cls-6 {
        opacity: .4;
      }

      .cls-7 {
        opacity: .81;
      }

      .cls-8 {
        opacity: .42;
      }

      .cls-9 {
        opacity: .53;
      }

      .cls-10 {
        opacity: .71;
      }

      .cls-11 {
        opacity: .68;
      }

      .cls-12 {
        opacity: .39;
      }

      .cls-13 {
        opacity: .64;
      }

      .cls-14 {
        opacity: .54;
      }

      .cls-15 {
        opacity: .9;
      }

      .cls-16 {
        opacity: .92;
      }

      .cls-17 {
        opacity: .6;
      }

      .cls-18 {
        opacity: .72;
      }

      .cls-19 {
        opacity: .33;
      }

      .cls-20 {
        opacity: .73;
      }

      .cls-21 {
        opacity: .59;
      }

      .cls-22 {
        opacity: .86;
      }

      .cls-23 {
        opacity: .93;
      }

      .cls-24 {
        opacity: .82;
      }

      .cls-25 {
        opacity: .6;
      }

      .cls-26 {
        opacity: .82;
      }

      .cls-27 {
        opacity: .74;
      }

      .cls-28 {
        opacity: .97;
      }

      .cls-29 {
        opacity: .92;
      }

      .cls-30 {
        opacity: .59;
      }

      .cls-31 {
        opacity: .5;
      }

      .cls-32 {
        opacity: .95;
      }

      .cls-33 {
        opacity: .98;
      }

      .cls-34 {
        opacity: .88;
      }

      .cls-35 {
        opacity: .52;
      }

      .cls-36 {
        opacity: .81;
      }

      .cls-37 {
        opacity: .49;
      }

      .cls-38 {
        opacity: .53;
      }

      .cls-39 {
        opacity: .98;
      }

      .cls-40 {
        opacity: .78;
      }

      .cls-41 {
        opacity: .56;
      }

      .cls-42 {
        opacity: .39;
      }

      .cls-43 {
        opacity: .44;
      }

      .cls-44 {
        opacity: .61;
      }

      .cls-45 {
        opacity: .87;
      }

      .cls-46 {
        opacity: .81;
      }

      .cls-47 {
        opacity: .87;
      }

      .cls-48 {
        opacity: .82;
      }

      .cls-49 {
        opacity: .68;
      }

      .cls-50 {
        opacity: .34;
      }

      .cls-51 {
        opacity: .66;
      }

      .cls-52 {
        opacity: .9;
      }

      .cls-53 {
        opacity: .83;
      }

      .cls-54 {
        opacity: .84;
      }

      .cls-55 {
        opacity: .37;
      }

      .cls-56 {
        opacity: .73;
      }

      .cls-57 {
        opacity: .94;
      }

      .cls-58 {
        opacity: .79;
      }

      .cls-59 {
        opacity: .72;
      }

      .cls-60 {
        opacity: .74;
      }

      .cls-61 {
        opacity: .6;
      }

      .cls-62 {
        opacity: .42;
      }

      .cls-63 {
        opacity: .78;
      }

      .cls-64 {
        opacity: .81;
      }

      .cls-65 {
        opacity: .93;
      }
    </style></defs><path class="cls-3" d="M15.48,27.64c-4.22-.08-7.2-.73-7.25-.74-.06-.01-.09-.07-.08-.13.01-.06.07-.09.13-.08.11.02,10.7,2.35,20.3-1.33.05-.02.12,0,.14.06.02.06,0,.12-.06.14-4.58,1.75-9.38,2.15-13.17,2.08Z"/><path class="cls-39" d="M21.43,26.24c-10.17-.19-18.36-4.79-18.46-4.85-.05-.03-.07-.09-.04-.15.03-.05.09-.07.15-.04.12.07,12.38,6.96,25.52,4.16.06-.01.11.02.13.08.01.06-.02.11-.08.13-2.46.52-4.89.71-7.21.67Z"/><path class="cls-59" d="M28.57,25.46s0,0,0,0c-8.77-.49-14.7-2.75-18.14-4.56-3.72-1.96-5.4-3.84-5.41-3.86-.04-.04-.03-.11,0-.15.04-.04.11-.03.15,0,.07.07,6.7,7.41,23.4,8.35.06,0,.1.05.1.11,0,.06-.05.1-.11.1Z"/><path class="cls-10" d="M28.57,25.46s-.02,0-.02,0c-14.74-3.76-18.76-11.1-18.8-11.17-.03-.05,0-.12.04-.14.05-.03.12,0,.14.04.04.07,4.02,7.33,18.66,11.07.06.01.09.07.08.13-.01.05-.06.08-.11.08Z"/><path class="cls-20" d="M17.72,26.72c-6.79-.13-10.98-1.82-11.04-1.85-.05-.02-.08-.09-.06-.14.02-.05.09-.08.14-.06.09.04,8.94,3.62,21.83.68.06-.01.11.02.13.08.01.06-.02.11-.08.13-4.09.93-7.78,1.21-10.92,1.15Z"/><path class="cls-45" d="M24.92,25.62c-6.15-.11-11.78-2.03-15.69-3.79C4.17,19.56.85,17.06.82,17.03c-.05-.04-.06-.1-.02-.15.04-.05.1-.06.15-.02.03.02,3.34,2.51,8.38,4.77,4.64,2.09,11.75,4.41,19.24,3.61.06,0,.11.04.12.09,0,.06-.04.11-.09.12-1.23.13-2.46.18-3.66.16Z"/><path class="cls-38" d="M28.57,25.46s0,0-.01,0c-12.76-1.77-19.06-7.36-19.12-7.42-.04-.04-.05-.11,0-.15s.11-.05.15,0c.06.06,6.32,5.61,19.01,7.37.06,0,.1.06.09.12,0,.05-.05.09-.11.09Z"/><path class="cls-8" d="M28.6,25.54s-.02,0-.03,0c-11.86-3.87-20.03-16.26-20.11-16.38-.03-.05-.02-.12.03-.15.05-.03.12-.02.15.03.08.12,8.21,12.45,20,16.3.06.02.09.08.07.13-.01.05-.06.07-.1.07Z"/><path class="cls-49" d="M28.57,25.46s-.03,0-.05-.01c-7.74-3.93-12.01-8.02-14.22-10.76-2.4-2.98-2.96-5-2.99-5.09-.02-.06.02-.12.08-.13.06-.02.12.02.13.08.02.08,2.37,8.25,17.1,15.72.05.03.07.09.05.14-.02.04-.06.06-.1.06Z"/><path class="cls-48" d="M28.57,25.46s-.04,0-.05-.02c-7.24-4.5-11.12-9-13.11-11.99-2.16-3.25-2.61-5.47-2.62-5.49-.01-.06.03-.11.08-.13.06-.01.11.03.13.08.02.09,1.87,8.79,15.63,17.34.05.03.07.1.03.15-.02.03-.06.05-.09.05Z"/><path class="cls-36" d="M28.62,25.57s-.04,0-.06-.02c-9.54-7.47-12.61-16.41-12.64-16.5-.02-.06.01-.12.07-.13.06-.02.12.01.14.07.03.09,3.09,8.97,12.57,16.4.05.04.05.1.02.15-.02.03-.05.04-.09.04Z"/><path class="cls-23" d="M28.62,25.57s-.05-.01-.07-.03c-8.73-8.4-11.74-19.99-11.77-20.11-.01-.06.02-.12.08-.13.06-.01.12.02.13.08.03.12,3.03,11.65,11.71,20.01.04.04.04.11,0,.15-.02.02-.05.03-.08.03Z"/><path class="cls-21" d="M28.62,25.57s-.07-.02-.09-.05c-7.82-11.7-8.3-19.28-8.3-19.36,0-.06.04-.11.1-.11.06,0,.11.04.11.1,0,.07.48,7.61,8.27,19.25.03.05.02.12-.03.15-.02.01-.04.02-.06.02Z"/><path class="cls-18" d="M28.57,25.46s-.07-.02-.09-.05c-6.72-11.02-5.79-22.78-5.78-22.89,0-.06.06-.1.12-.1.06,0,.1.06.1.12-.01.12-.93,11.81,5.75,22.76.03.05.01.12-.04.15-.02.01-.04.02-.06.02Z"/><path class="cls-26" d="M28.62,25.57s-.08-.03-.1-.07c-3.01-7.84-3.34-14.08-3.08-17.93.28-4.18,1.28-6.54,1.29-6.56.02-.05.09-.08.14-.06.05.02.08.09.06.14-.04.09-3.93,9.4,1.79,24.33.02.05,0,.12-.06.14-.01,0-.03,0-.04,0Z"/><path class="cls-12" d="M28.65,25.57l-.05-.21.02.1h-.11s0-.03-.02-.09c-.47-2.98-1.89-13.26-.62-20.26.01-.06.07-.1.12-.09.06.01.1.07.09.12-1.26,6.97.16,17.22.62,20.19.02.13.03.2-.06.22Z"/><path class="cls-15" d="M27.91,5.5c-.34-.05-.36-2.19.45-2.12.91.07,0,2.19-.45,2.12Z"/><path class="cls-42" d="M26.47,2.12c-.34-.08-.17-2.21.63-2.08.9.15-.19,2.18-.63,2.08Z"/><path class="cls-62" d="M22.74,3.43c-.34,0-.61-2.13.2-2.16.91-.03.25,2.17-.2,2.16Z"/><path class="cls-46" d="M20.42,6.94c-.34.05-.95-2-.16-2.17.89-.18.6,2.1.16,2.17Z"/><path class="cls-2" d="M17.18,6.46c-.32.12-1.34-1.77-.6-2.09.84-.36,1.02,1.94.6,2.09Z"/><path class="cls-65" d="M16.43,10.01c-.31.16-1.55-1.59-.85-2,.79-.46,1.25,1.8.85,2Z"/><path class="cls-55" d="M13.2,8.94c-.32.13-1.39-1.73-.66-2.07.82-.39,1.08,1.9.66,2.07Z"/><path class="cls-30" d="M11.7,10.32c-.31.15-1.52-1.61-.82-2.01.79-.45,1.22,1.82.82,2.01Z"/><path class="cls-57" d="M9.27,10.14c-.28.19-1.74-1.37-1.1-1.87.72-.56,1.47,1.62,1.1,1.87Z"/><path class="cls-25" d="M10.28,14.89c-.28.2-1.78-1.33-1.15-1.85.71-.58,1.51,1.58,1.15,1.85Z"/><path class="cls-17" d="M10.29,18.64c-.21.28-2.09-.73-1.65-1.41.5-.76,1.92,1.05,1.65,1.41Z"/><path class="cls-58" d="M5.91,17.76c-.21.27-2.08-.79-1.61-1.45.52-.75,1.89,1.1,1.61,1.45Z"/><path class="cls-1" d="M1.8,17.65c-.18.29-2.14-.57-1.75-1.29.44-.8,1.99.91,1.75,1.29Z"/><path class="cls-44" d="M4.07,21.86c-.15.31-2.19-.34-1.88-1.09.35-.84,2.08.69,1.88,1.09Z"/><path class="cls-64" d="M7.9,25.14c-.08.34-2.21.16-2.08-.64.15-.9,2.18.2,2.08.64Z"/><path class="cls-24" d="M9.35,26.94c-.05.34-2.19.34-2.12-.47.08-.91,2.19.03,2.12.47Z"/><path class="cls-29" d="M41.61,28.02c-3.8-.07-8.58-.64-13.09-2.56-.05-.02-.08-.09-.06-.14.02-.05.09-.08.14-.06,9.46,4.03,20.13,2.1,20.24,2.07.06-.01.11.03.12.09.01.06-.03.11-.09.12-.06.01-3.06.55-7.27.48Z"/><path class="cls-47" d="M35.72,26.39c-2.32-.04-4.74-.32-7.18-.94-.06-.01-.09-.07-.08-.13.01-.06.07-.09.13-.08,13.03,3.29,25.53-3.15,25.66-3.21.05-.03.12,0,.14.05s0,.12-.04.14c-.1.05-8.46,4.36-18.63,4.17Z"/><path class="cls-32" d="M28.62,25.36c-.06,0-.1-.05-.1-.1,0-.06.05-.11.1-.11,16.73-.32,23.63-7.4,23.69-7.48.04-.04.11-.04.15,0,.04.04.04.11,0,.15-.02.02-1.76,1.83-5.55,3.65-3.5,1.68-9.51,3.72-18.29,3.89h0Z"/><path class="cls-52" d="M28.62,25.36s-.09-.03-.1-.08c-.01-.06.02-.11.08-.13,14.77-3.19,19.02-10.3,19.06-10.37.03-.05.09-.07.15-.04.05.03.07.09.04.15-.04.07-4.33,7.26-19.2,10.47,0,0-.02,0-.02,0Z"/><path class="cls-63" d="M39.41,27.01c-3.14-.06-6.81-.47-10.87-1.55-.06-.02-.09-.07-.08-.13.02-.06.07-.09.13-.08,12.77,3.41,21.75.16,21.84.12.06-.02.12,0,.14.06.02.06,0,.12-.06.14-.06.02-4.31,1.56-11.1,1.44Z"/><path class="cls-13" d="M32.26,25.65c-1.2-.02-2.42-.11-3.65-.29-.06,0-.1-.06-.09-.12,0-.06.06-.1.12-.09,14.26,2.05,27.77-7.27,27.9-7.36.05-.03.11-.02.15.03.03.05.02.11-.03.15-.03.02-3.45,2.4-8.58,4.48-3.97,1.61-9.67,3.32-15.82,3.21Z"/><path class="cls-56" d="M28.62,25.36c-.05,0-.1-.04-.1-.1,0-.06.04-.11.1-.12,12.75-1.29,19.2-6.61,19.27-6.66.05-.04.11-.03.15.01.04.05.03.11-.01.15-.06.05-6.57,5.41-19.38,6.71,0,0,0,0-.01,0Z"/><path class="cls-31" d="M28.58,25.43s-.09-.03-.1-.08c-.02-.06.02-.12.07-.13,11.92-3.41,20.5-15.43,20.59-15.55.03-.05.1-.06.15-.03.05.03.06.1.03.15-.09.12-8.71,12.2-20.7,15.63-.01,0-.02,0-.03,0Z"/><path class="cls-33" d="M28.62,25.36s-.08-.02-.1-.06c-.02-.05,0-.12.05-.14,15-6.92,17.64-15,17.66-15.08.02-.06.08-.09.13-.07.06.02.09.08.07.13-.03.08-.66,2.08-3.17,4.97-2.31,2.66-6.72,6.59-14.61,10.23-.02,0-.03.01-.05,0Z"/><path class="cls-54" d="M28.62,25.36s-.07-.02-.09-.05c-.03-.05-.01-.12.04-.15,14.08-8.05,16.24-16.67,16.26-16.75.01-.06.07-.09.13-.08.06.01.09.07.08.13,0,.02-.54,2.22-2.82,5.39-2.1,2.91-6.15,7.28-13.55,11.5-.02,0-.04.01-.05.01Z"/><path class="cls-11" d="M28.57,25.46s-.06-.02-.08-.04c-.03-.05-.02-.11.02-.15,9.75-7.08,13.13-15.84,13.17-15.92.02-.06.08-.08.14-.06.06.02.08.08.06.14-.03.09-3.43,8.91-13.24,16.02-.02.01-.04.02-.06.02Z"/><path class="cls-53" d="M28.57,25.46s-.06-.01-.08-.04c-.04-.04-.04-.11,0-.15,8.99-8.03,12.41-19.45,12.44-19.56.02-.06.08-.09.13-.07.06.02.09.08.07.13-.03.12-3.47,11.59-12.5,19.66-.02.02-.05.03-.07.03Z"/><path class="cls-35" d="M28.57,25.46s-.04,0-.06-.02c-.05-.03-.06-.1-.02-.15,8.21-11.35,8.96-18.86,8.97-18.93,0-.06.06-.1.12-.1.06,0,.1.06.1.12,0,.08-.76,7.64-9.01,19.04-.02.03-.05.04-.09.04Z"/><path class="cls-37" d="M28.62,25.36s-.04,0-.06-.02c-.05-.03-.06-.1-.03-.15,7.09-10.7,6.59-22.42,6.59-22.54,0-.06.04-.11.1-.11.06,0,.11.04.11.1,0,.12.5,11.9-6.62,22.67-.02.03-.06.05-.09.05Z"/><path class="cls-9" d="M28.57,25.46s-.03,0-.04,0c-.05-.02-.08-.09-.06-.14,6.28-14.71,2.72-24.15,2.69-24.25-.02-.05,0-.12.06-.14.06-.02.12,0,.14.06,0,.02.93,2.42,1.05,6.6.11,3.86-.44,10.08-3.74,17.8-.02.04-.06.07-.1.06Z"/><path class="cls-61" d="M28.54,25.46c-.09-.03-.08-.09-.05-.23.57-2.96,2.37-13.14,1.37-20.16,0-.06.03-.11.09-.12.06,0,.11.03.12.09,1.01,7.05-.79,17.26-1.37,20.23-.01.06-.02.09-.02.1l-.1-.02-.03.1Z"/><path class="cls-51" d="M30.01,5.44c.34-.04.44-2.18-.37-2.14-.91.04-.07,2.19.37,2.14Z"/><path class="cls-34" d="M31.58,2.1c.34-.06.25-2.21-.55-2.1-.9.12.11,2.18.55,2.1Z"/><path class="cls-40" d="M35.26,3.56c.34,0,.69-2.11-.12-2.17-.91-.07-.33,2.16.12,2.17Z"/><path class="cls-16" d="M37.45,7.15c.34.06,1.03-1.97.24-2.16-.88-.22-.68,2.08-.24,2.16Z"/><path class="cls-6" d="M40.7,6.79c.32.13,1.41-1.72.67-2.07-.82-.39-1.09,1.9-.67,2.07Z"/><path class="cls-22" d="M41.32,10.36c.3.17,1.61-1.53.92-1.97-.77-.49-1.31,1.75-.92,1.97Z"/><path class="cls-41" d="M44.59,9.42c.31.14,1.46-1.67.74-2.04-.81-.42-1.15,1.86-.74,2.04Z"/><path class="cls-60" d="M46.04,10.85c.3.16,1.58-1.56.89-1.98-.78-.48-1.29,1.77-.89,1.98Z"/><path class="cls-7" d="M48.47,10.76c.28.21,1.79-1.31,1.17-1.83-.7-.59-1.53,1.56-1.17,1.83Z"/><path class="cls-43" d="M47.29,15.46c.27.21,1.82-1.27,1.21-1.8-.68-.6-1.57,1.53-1.21,1.8Z"/><path class="cls-19" d="M47.13,19.21c.19.28,2.12-.66,1.7-1.35-.47-.78-1.95.98-1.7,1.35Z"/><path class="cls-28" d="M51.55,18.49c.2.28,2.1-.71,1.67-1.39-.49-.77-1.93,1.03-1.67,1.39Z"/><path class="cls-50" d="M55.65,18.54c.17.3,2.16-.49,1.8-1.22-.41-.81-2.02.83-1.8,1.22Z"/><path class="cls-27" d="M53.24,22.66c.14.31,2.2-.26,1.92-1.02-.32-.85-2.1.61-1.92,1.02Z"/><path class="cls-4" d="M49.28,25.79c.07.34,2.21.24,2.1-.56-.12-.9-2.18.12-2.1.56Z"/><path class="cls-14" d="M47.77,27.55c.04.34,2.18.42,2.14-.39-.05-.91-2.19-.06-2.14.39Z"/><g><path class="cls-5" d="M28.81,25.45l-.11,29.04c0,.35-.29.64-.64.64-.35,0-.64-.29-.64-.64,0,0,0-.01,0-.02l.96-29.02c0-.12.1-.21.23-.21.12,0,.21.1.21.22Z"/><path class="cls-5" d="M29.07,50.02c-.06,3.09.06,5.6-1.03,5.58s-.88-2.52-.82-5.62.34-5.6,1.03-5.58.88,2.52.82,5.62Z"/></g></svg>