<svg xmlns="http://www.w3.org/2000/svg" viewBox="0 0 2949.28 1053.31" preserveAspectRatio="none" fill="#c2eaed"><path d="M3472.03,980.34c0-20.98-74.13-38.06-167.92-39.51.01-.54.08-1.08.08-1.65,0-37.91-28.3-68.59-63.19-68.59-14.15,0-27.15,5.09-37.66,13.59-.17-.31-.34-.58-.5-.88-14.11-75.96-75.93-133.15-150.05-133.15-12.65,0-24.87,1.84-36.62,4.98-14.82-35.3-47.53-59.86-85.59-59.86-27.84,0-52.78,13.18-70,34.05-19.32-29.8-51.19-49.3-87.29-49.3-5.27,0-10.39.54-15.44,1.35,3.55-14.04,5.61-28.76,5.61-44.03,0-91.79-68.55-166.16-153.1-166.16-44.24,0-83.96,20.48-111.92,53.02-20.26-50.91-66.9-86.57-121.24-86.57-46.46,0-87.24,26.11-110.77,65.49-15.92-27.42-43.97-45.67-76.02-45.67-8.83,0-17.34,1.43-25.39,4.01-20.31-41.38-60.44-69.55-106.64-69.55s-83.8,26.5-104.65,65.8c-1.64-.1-3.26-.26-4.91-.26-32.97,0-61.73,19.33-77.37,48.05-27.73-28.75-65.24-46.51-106.61-46.51-45.51,0-86.31,21.48-114.59,55.48-39.7-31.03-88.38-49.37-141.04-49.37-72.44,0-137.39,34.65-181.66,89.44-17.46-8.44-36.75-13.24-57.11-13.24-77.56,0-140.45,68.23-140.45,152.44,0,3.18.26,6.29.44,9.41-7.33-2.08-14.98-3.32-22.92-3.32-34.63,0-64.64,21.3-79.67,52.46-18.28-10.07-38.89-15.87-60.78-15.87-57.96,0-107.24,39.8-126.3,95.51-3.72-.6-7.49-.98-11.34-.98-40.66,0-74.09,33.47-78.23,76.4-1.08-.07-2.15-.17-3.24-.17-24.84,0-45.65,18.41-51.61,43.36-6.06-.43-12.25-.71-18.62-.71-50.63,0-93.13,14.36-105.68,33.84-4.05-.18-8.12-.29-12.3-.29-60.5,0-109.54,20.45-109.54,45.72s49.05,45.73,109.54,45.73c7.82,0,15.43-.35,22.79-1.01,17.94,15.04,55.04,25.41,98,25.41,4.21,0,8.36-.13,12.45-.32,5,24.59,25.18,43.01,49.36,43.01,5.51,0,10.81-1,15.78-2.77,17.37,25.67,45.31,42.39,76.91,42.39,15.83,0,30.72-4.25,43.88-11.64,14.13,14.74,33.29,23.84,54.42,23.84s40.8-9.31,54.98-24.37c24.7,33.41,62.59,54.85,105.14,54.85,35.01,0,66.77-14.58,90.74-38.31,11.12,26.2,35.45,44.42,63.77,44.42,25.3,0,47.39-14.56,59.76-36.33,20.31,13.29,44.01,21.08,69.45,21.08,31.3,0,60.03-11.68,82.92-31.09,12.84,15.33,31.31,25.03,51.92,25.03s38.37-9.34,51.18-24.16c19.49,32.83,53.41,54.6,92.07,54.6,30.51,0,58.09-13.54,77.96-35.4,36.54,31.06,90,50.65,149.6,50.65,73.36,0,137.44-29.69,172.08-73.89,21.18,37.85,59.42,63.23,103.21,63.23,14.58,0,28.49-2.94,41.41-8.08,16.03,28.56,44.89,47.71,77.97,47.71s61.49-18.84,77.58-47.04c36.17,28.6,80.69,45.51,128.88,45.51,75.3,0,141.72-41.21,181.16-104.01,24.05,27.4,57.91,44.57,95.54,44.57s74.39-18.68,98.57-48.2c8.67,3.5,18.03,5.52,27.84,5.52,11.23,0,21.9-2.54,31.61-7.08,26.16,8.35,56.3,13.17,88.46,13.17,91.59,0,167.07-38.63,178.74-88.68,1.51.11,3.02.25,4.56.25,21.45,0,40.36-11.63,51.8-29.36,8.85,5.11,18.94,8.02,29.66,8.02,31.44,0,57.44-24.93,62.32-57.54,79.05-4.22,137.83-19.82,137.83-38.48Z"/></svg>