<svg xmlns="http://www.w3.org/2000/svg" viewBox="0 0 2949.28 1053.31" preserveAspectRatio="none" fill="#effafb"><path d="M2457.19,958.86c-18.61-1.98-38.53-2.96-58.32-3.13-.83-10.46-6.73-20.31-16.65-25.68-15.54-8.37-34.95-2.58-43.33,12.96-3.72-53.69-152.71-84.69-178.28-34.4-2.6-19.32-13.92-37.21-32.37-47.17-30.61-16.5-68.82-5.11-85.33,25.52-.45.82-.64,1.69-1.05,2.53-9.32-2.16-18.8-3.63-28.33-4.36,3.05-17.45-4.95-35.64-21.41-44.54-19.65-10.58-43.84-3.92-55.64,14.64-6.52-5.33-13.59-10.16-21.28-14.31-19.05-10.28-39.48-15.35-59.75-15.94-10.97-29.44-32.14-55.24-61.96-71.33-52.27-28.21-114.92-18.13-155.92,20.52-.14-25.6-13.55-50.34-37.67-63.36-23.31-12.58-50.34-10.81-71.52,1.9-5.49-34.45-26.28-66.08-59.36-83.93-43.18-23.3-94.54-16.31-129.91,13.55-9.88-19.95-25.72-37.17-46.81-48.55-54.12-29.19-121.7-9.03-150.92,45.12-1.22,2.26-2.22,4.57-3.28,6.88-9.65-9.22-20.55-17.42-32.86-24.07-74.21-40.03-166.88-12.37-206.93,61.86-7.28,13.49-12.26,27.6-15.19,41.89-41-.58-80.93,21.03-101.74,59.62-5.87,10.87-9.72,22.28-11.8,33.83-24.12-5.12-49.12,2.14-66.75,19.29-4.68-3.83-9.76-7.32-15.28-10.29-45.19-24.39-101.18-8.7-127.46,34.78-1.44-1.09-2.88-2.18-4.51-3.06-17.03-9.19-38.3-2.84-47.49,14.19-3.94,7.31-4.87,15.37-3.47,22.96-4.51,1.06-8.93,2.49-13.21,4.31-3.06-6.66-8.11-12.46-15.07-16.21-17.03-9.18-38.3-2.83-47.48,14.21-3.69,6.83-4.77,14.32-3.77,21.45-5.87,1.3-11.51,3.18-16.8,5.83-14.79-3.1-30.46,3.52-37.99,17.5-.79,1.46-1.31,2.99-1.88,4.5-4.38-.96-8.95-1.63-13.77-1.63-17.03,0-31.76,6.51-39.85,16.11-1.26,0-2.49-.04-3.76-.04-47.89,0-86.69,7.44-86.69,16.65s38.8,16.64,86.69,16.64c1.27,0,2.5-.03,3.75-.04,8.11,9.61,22.83,16.12,39.87,16.12,9.62,0,18.56-2.06,25.98-5.59,6.01,10.86,15.57,20.25,28.35,26.44,18.84,9.14,40.26,9.18,58.54,2.22,5.08,4.8,10.78,9.06,17.21,12.53,25.36,13.69,54.71,12.5,78.2-.47,5.97,6.42,13.02,12.01,21.16,16.4,37.16,20.08,82.82,8.7,106.64-24.9,6.27,18.49,19.19,34.76,37.73,44.75,38.36,20.74,86.02,6.86,107.53-30.77,13.02,17.86,29.96,33.24,50.7,44.41,65.31,35.31,144.83,18.03,190.29-37.17,8.74,15.07,21.52,28.04,37.98,36.92,47.43,25.64,106.66,7.92,132.26-39.52.38-.7.64-1.41,1-2.12,6.39,19.36,19.82,36.44,39.19,46.87,40.18,21.73,90.34,6.71,112.04-33.47,1.47-2.72,2.74-5.51,3.88-8.31,12.13,18.46,28.87,34.27,49.68,45.48,64.11,34.66,143.35,13.09,181.72-47.58,8.05,12.69,19.32,23.59,33.48,31.23,37.17,20.08,82.05,11.45,109.5-18.14,3.2,2.09,6.45,4.15,9.88,5.98,51.94,28.07,114.03,18.28,155.04-19.71,51.8,16.03,111.82,8,150.7-18.26,26.11,4.46,53.58,4.65,79.02,1.07,4.89,5.7,10.77,10.72,17.78,14.5,30.61,16.56,68.82,5.12,85.36-25.5.14-.26.21-.54.35-.81,36.5-1.97,70.3-9.14,91.8-20.56,56.2,2.17,115.36-2.96,144-13.41,35.23-12.86,10.86-28.89-54.44-35.83Z"/></svg>