<svg xmlns="http://www.w3.org/2000/svg" viewBox="0 0 2949.28 1053.31" preserveAspectRatio="none" fill="#f4fcfc"><path d="M1046.21,1157.8c16.5-2.54,31.75-3.33,43.63-2.6,1.85-10.2,14.6-18.82,30.78-20.05,16.4-1.24,30.45,5.59,33.54,15.63,6.59-7.02,15.89-11.46,26.3-11.46,9.51,0,18.09,3.74,24.54,9.74,7.57-10.67,19.57-17.78,33.34-18.98,4.38-12.94,16.47-22.3,30.88-22.3,5,0,9.7,1.21,13.93,3.22,10.46-18.56,30.32-31.1,53.14-31.1,15.4,0,29.43,5.75,40.18,15.14,14.54-10.98,32.57-17.58,52.21-17.58,12.5,0,24.37,2.71,35.11,7.47,3.84-30.02,29.42-53.22,60.47-53.22,4.45,0,8.78.49,12.95,1.4,0-.47-.07-.93-.07-1.41,0-33.71,27.32-61.04,61.03-61.04,4.54,0,8.94.54,13.21,1.47,16.66-61.47,72.66-106.72,139.42-106.72,31.44,0,60.45,10.14,84.17,27.17,5.69-53.21,50.68-94.65,105.41-94.65,30.88,0,58.6,13.29,77.99,34.35,8.64-96.69,89.75-172.49,188.7-172.49,45.51,0,87.24,16.06,119.91,42.78,44.85-62.82,118.31-103.83,201.41-103.83,119.46,0,219.12,84.63,242.31,197.22,16.94-4.88,34.79-7.63,53.3-7.63,98.82,0,180.13,74.36,191.34,170.15,11.54-4,23.88-6.28,36.8-6.28,41.85,0,78.29,22.93,97.65,56.86,11.84-3.5,24.33-5.45,37.29-5.45,46.01,0,86.46,23.62,110.01,59.37,8.96-6.04,19.75-9.56,31.36-9.56,25.59,0,47.15,17.11,53.97,40.49,5.12-2.25,10.76-3.54,16.73-3.54,1,0,1.95.17,2.94.24v114.45c-2.5-1.82-4.83-3.85-6.94-6.11-10.29,13.1-26.24,21.54-44.19,21.54-19.5,0-36.68-9.93-46.77-25-21.86,42.48-66.04,71.59-117.11,71.59-41.21,0-77.98-18.94-102.13-48.57-17.46,41.73-58.65,71.06-106.72,71.06-51.87,0-95.75-34.13-110.42-81.15-16.54,43.66-58.63,74.74-108.08,74.74-44.08,0-82.39-24.68-101.9-60.96-33.79,55.74-94.84,93.1-164.79,93.1-53.83,0-102.45-22.1-137.41-57.67-21.56,34.58-59.82,57.65-103.57,57.65-36.46,0-69.08-16.05-91.45-41.37-36.64,31.75-84.41,51-136.7,51-63.05,0-119.55-27.98-157.83-72.16-23.66,18.98-53.66,30.4-86.36,30.4-45.81,0-86.3-22.39-111.44-56.71-19.19,19.16-45.66,31.01-74.93,31.01-37.83,0-70.95-19.86-89.72-49.66-15.02,25.83-42.91,43.23-74.96,43.23-25.17,0-47.76-10.76-63.59-27.87-10.19,7.88-22.93,12.61-36.82,12.61-22.16,0-41.48-12-51.95-29.83-8.4,9.38-20.45,15.37-34,15.37-15.44,0-29.02-7.68-37.31-19.38-6.45,5.99-15.03,9.74-24.54,9.74-10.89,0-20.53-4.91-27.17-12.51-5.09,4.49-11.7,7.29-19.02,7.29-9.01,0-16.93-4.19-22.25-10.64-7.59,4.22-20.45,6.72-35.02,6.22-16.32-.56-30.17-4.77-36.8-10.39-31.05,3.47-55.56.46-56.8-7.56-1.37-8.95,26.73-20.7,62.82-26.26Z"/></svg>