<svg xmlns="http://www.w3.org/2000/svg" viewBox="0 0 2949.28 1053.31" preserveAspectRatio="none" fill="#e2f5f7"><path d="M2343.39,780.91c-13.01-2-25.03-2.63-34.4-2.05-1.46-8.05-11.51-14.84-24.27-15.81-12.93-.98-24.01,4.41-26.45,12.33-5.2-5.53-12.53-9.04-20.74-9.04-7.5,0-14.26,2.95-19.35,7.68-5.97-8.41-15.43-14.02-26.29-14.97-3.45-10.2-12.99-17.58-24.35-17.58-3.94,0-7.64.96-10.98,2.54-8.25-14.64-23.91-24.53-41.9-24.53-12.15,0-23.21,4.53-31.68,11.94-11.46-8.66-25.68-13.86-41.16-13.86-9.86,0-19.21,2.13-27.68,5.89-3.03-23.67-23.2-41.96-47.68-41.96-3.51,0-6.92.39-10.21,1.1,0-.37.05-.74.05-1.11,0-26.58-21.54-48.13-48.12-48.13-3.58,0-7.05.43-10.41,1.16-13.14-48.47-57.3-84.15-109.93-84.15-24.79,0-47.66,7.99-66.37,21.42-4.49-41.95-39.97-74.63-83.12-74.63-24.35,0-46.21,10.48-61.49,27.08-6.82-76.24-70.77-136.01-148.79-136.01-35.88,0-68.79,12.66-94.55,33.73-35.36-49.54-93.29-81.87-158.81-81.87-94.19,0-172.77,66.73-191.06,155.5-13.36-3.85-27.43-6.02-42.03-6.02-77.92,0-142.03,58.63-150.87,134.16-9.1-3.15-18.83-4.95-29.02-4.95-33,0-61.74,18.08-77,44.83-9.34-2.76-19.18-4.3-29.41-4.3-36.28,0-68.17,18.63-86.74,46.81-7.07-4.76-15.58-7.54-24.73-7.54-20.18,0-37.18,13.49-42.55,31.93-4.04-1.78-8.49-2.79-13.19-2.79-.79,0-1.54.14-2.31.19v90.25c1.97-1.43,3.81-3.04,5.47-4.81,8.12,10.33,20.69,16.99,34.84,16.99,15.38,0,28.92-7.83,36.88-19.71,17.24,33.5,52.07,56.45,92.34,56.45,32.5,0,61.48-14.94,80.53-38.29,13.77,32.91,46.24,56.03,84.15,56.03,40.9,0,75.5-26.91,87.07-63.99,13.04,34.42,46.23,58.93,85.22,58.93,34.76,0,64.96-19.46,80.35-48.06,26.64,43.95,74.79,73.41,129.94,73.41,42.45,0,80.78-17.43,108.35-45.48,17,27.27,47.17,45.46,81.66,45.46,28.75,0,54.47-12.65,72.11-32.62,28.89,25.03,66.56,40.22,107.79,40.22,49.72,0,94.26-22.07,124.45-56.9,18.66,14.97,42.31,23.97,68.1,23.97,36.13,0,68.04-17.66,87.87-44.72,15.13,15.1,36,24.45,59.08,24.45,29.83,0,55.95-15.66,70.75-39.16,11.84,20.37,33.84,34.09,59.11,34.09,19.85,0,37.66-8.49,50.14-21.98,8.04,6.22,18.08,9.94,29.03,9.94,17.47,0,32.71-9.47,40.96-23.52,6.62,7.39,16.12,12.12,26.81,12.12,12.18,0,22.88-6.06,29.42-15.28,5.09,4.72,11.85,7.68,19.35,7.68,8.59,0,16.19-3.87,21.42-9.87,4.01,3.54,9.22,5.75,15,5.75,7.1,0,13.35-3.3,17.54-8.39,5.98,3.32,16.12,5.3,27.62,4.9,12.87-.44,23.79-3.76,29.02-8.19,24.48,2.73,43.81.36,44.79-5.96,1.08-7.06-21.08-16.32-49.53-20.71Z"/></svg>