<svg xmlns="http://www.w3.org/2000/svg" viewBox="0 0 2949.28 1053.31" preserveAspectRatio="none" fill="#b1e3e7"><path d="M1023.32,595.33c-1.84-13.3-13.23-23.56-27.03-23.56-6.82,0-13.05,2.52-17.83,6.66-4.97-6.9-13.04-11.41-22.19-11.41-4.84,0-9.38,1.26-13.32,3.47-2.64-12.33-13.59-21.59-26.71-21.59-9.16,0-17.25,4.53-22.21,11.45-6.67-6.69-15.89-10.82-26.08-10.82-4.97,0-9.73,1.01-14.06,2.8-1.02-14.15-12.8-25.34-27.22-25.34-10.82,0-20.14,6.31-24.57,15.44-6.32-5.09-14.33-8.15-23.07-8.15-6.43,0-12.48,1.66-17.75,4.56-9.27-6.83-20.68-10.92-33.08-10.92-7.74,0-15.13,1.58-21.83,4.43-5.78-24.72-27.91-43.17-54.39-43.17-9.43,0-18.3,2.36-26.08,6.48-7.04-10.79-19.17-17.93-33.01-17.93-17.08,0-31.57,10.88-37.04,26.08-3.27-25.78-25.25-45.75-51.93-45.75-8.78,0-17.04,2.19-24.31,6.01-10.99-21.01-32.11-35.87-56.89-38.1.53-2.35.83-4.78.83-7.3,0-18.23-14.78-33.02-33.01-33.02-4.13,0-8.06.79-11.7,2.18-7.47-28.66-33.52-49.82-64.53-49.82-9.26,0-18.08,1.89-26.1,5.31-.89-44.83-37.49-80.92-82.53-80.92s-79.09,33.64-82.31,76.28c-11.9-11.06-27.85-17.84-45.37-17.84-35.33,0-64.23,27.49-66.52,62.24-5.04-1.95-10.5-3.07-16.24-3.07-21.31,0-39.13,14.81-43.82,34.69-13.22-8.56-28.93-13.59-45.8-13.79v261.99c9.93,4.63,20.95,7.32,32.64,7.32,27.43,0,51.52-14.27,65.29-35.77,22.71,34.53,61.79,57.35,106.22,57.35,26.18,0,50.5-7.92,70.71-21.49,10.25,12.34,25.7,20.21,43,20.21,15.86,0,30.14-6.63,40.3-17.23,10.12,16.44,28.22,27.43,48.94,27.43,18.34,0,34.64-8.61,45.17-21.98,10.78,21.31,32.87,35.92,58.39,35.92,27.23,0,50.56-16.62,60.4-40.27,11.95,13.04,29.13,21.21,48.22,21.21,13.37,0,25.81-4.01,36.17-10.9,7.49,3.72,15.9,5.87,24.83,5.87,25.49,0,46.95-17.07,53.67-40.39,10.26,12.25,25.66,20.05,42.88,20.05,8.83,0,17.16-2.1,24.59-5.76,4.71,4.16,10.88,6.71,17.67,6.71,11.3,0,20.94-7.03,24.83-16.96,11.91,2.13,24.84,3.31,38.37,3.31,17.34,0,33.7-1.93,48.17-5.34,31.11,34.49,76.18,12.94,82.49-7.1,22.15-1.78,41.58-5.88,55.92-11.47,4.01,4.52,9.85,7.39,16.37,7.39,9.79,0,18.06-6.4,20.88-15.24,1.2,0,2.38.01,3.58.01,58.95,0,106.72-6.82,106.72-15.25s-43.53-14.61-98.73-15.2Z"/></svg>