<svg xmlns="http://www.w3.org/2000/svg" viewBox="0 0 2949.28 1053.31" preserveAspectRatio="none" fill="#d6f1f3"><path d="M1616.42,762.82c-18.52-1.97-38.35-2.95-58.05-3.11-.82-10.41-6.7-20.22-16.57-25.56-15.46-8.33-34.79-2.57-43.13,12.9-3.7-53.44-152-84.29-177.45-34.24-2.58-19.23-13.85-37.04-32.22-46.95-30.46-16.42-68.5-5.08-84.93,25.4-.44.82-.64,1.68-1.05,2.51-9.28-2.15-18.71-3.61-28.19-4.34,3.03-17.36-4.92-35.47-21.31-44.33-19.56-10.53-43.64-3.9-55.38,14.58-6.49-5.31-13.53-10.11-21.18-14.25-18.96-10.23-39.3-15.27-59.47-15.86-10.92-29.31-31.99-54.98-61.67-71-52.03-28.07-114.38-18.04-155.19,20.43-.14-25.48-13.48-50.11-37.49-63.06-23.2-12.52-50.1-10.76-71.18,1.89-5.46-34.29-26.15-65.77-59.08-83.54-42.97-23.19-94.1-16.24-129.3,13.49-9.83-19.86-25.6-37-46.59-48.32-53.87-29.05-121.13-8.99-150.22,44.91-1.21,2.25-2.21,4.55-3.26,6.84-9.6-9.17-20.46-17.34-32.71-23.96-73.86-39.84-166.09-12.31-205.96,61.57-7.25,13.43-12.2,27.48-15.12,41.69-40.81-.58-80.55,20.93-101.26,59.34-5.84,10.82-9.67,22.18-11.74,33.67-24-5.1-48.89,2.13-66.44,19.19-4.66-3.82-9.72-7.28-15.21-10.24-44.98-24.28-100.71-8.66-126.86,34.62-1.44-1.08-2.87-2.17-4.49-3.04-16.95-9.15-38.12-2.83-47.26,14.13-3.92,7.28-4.85,15.3-3.46,22.86-4.49,1.06-8.89,2.48-13.15,4.29-3.05-6.63-8.07-12.4-15-16.13-16.95-9.14-38.12-2.82-47.26,14.14-3.67,6.8-4.75,14.25-3.75,21.35-5.84,1.3-11.46,3.17-16.72,5.8-14.72-3.08-30.31,3.51-37.81,17.42-.78,1.45-1.3,2.97-1.87,4.48-4.36-.96-8.91-1.62-13.71-1.62-16.96,0-31.61,6.48-39.66,16.03-1.25,0-2.48-.04-3.75-.04-47.66,0-86.28,7.41-86.28,16.57s38.62,16.56,86.28,16.56c1.27,0,2.49-.03,3.73-.04,8.07,9.57,22.72,16.04,39.68,16.04,9.58,0,18.48-2.05,25.86-5.56,5.99,10.81,15.5,20.15,28.22,26.31,18.75,9.1,40.07,9.14,58.26,2.21,5.06,4.77,10.73,9.01,17.13,12.47,25.24,13.62,54.45,12.44,77.83-.47,5.94,6.39,12.96,11.96,21.06,16.32,36.99,19.98,82.44,8.66,106.14-24.79,6.24,18.41,19.1,34.6,37.55,44.54,38.18,20.65,85.62,6.83,107.03-30.63,12.96,17.77,29.82,33.08,50.46,44.21,65,35.14,144.15,17.94,189.4-37,8.7,15,21.42,27.91,37.81,36.74,47.21,25.52,106.16,7.88,131.64-39.33.38-.7.64-1.41,1-2.11,6.36,19.27,19.73,36.27,39,46.65,39.99,21.63,89.92,6.67,111.52-33.31,1.46-2.71,2.73-5.49,3.86-8.27,12.08,18.38,28.74,34.11,49.45,45.27,63.81,34.5,142.68,13.03,180.87-47.35,8.01,12.63,19.23,23.48,33.33,31.08,37,19.99,81.67,11.39,108.99-18.05,3.19,2.08,6.42,4.13,9.84,5.96,51.69,27.94,113.5,18.2,154.31-19.62,51.56,15.96,111.3,7.96,149.99-18.17,25.98,4.44,53.33,4.63,78.65,1.06,4.87,5.68,10.72,10.67,17.7,14.44,30.47,16.48,68.5,5.1,84.96-25.38.13-.26.2-.54.35-.81,36.33-1.96,69.97-9.1,91.37-20.46,55.94,2.16,114.82-2.95,143.33-13.34,35.06-12.79,10.81-28.75-54.18-35.66Z"/></svg>