<svg xmlns="http://www.w3.org/2000/svg" viewBox="0 0 2949.28 1053.31" preserveAspectRatio="none" fill="#fdfcf9"><path d="M2170.86,1234.72c-20.34-3.13-39.14-4.11-53.78-3.2-2.28-12.58-17.99-23.2-37.94-24.72-20.22-1.53-37.53,6.89-41.34,19.27-8.13-8.65-19.59-14.13-32.42-14.13-11.72,0-22.3,4.62-30.25,12.01-9.33-13.15-24.12-21.92-41.09-23.4-5.4-15.95-20.3-27.48-38.07-27.48-6.16,0-11.95,1.5-17.17,3.96-12.9-22.88-37.38-38.34-65.5-38.34-18.99,0-36.28,7.08-49.53,18.67-17.92-13.54-40.14-21.67-64.35-21.67-15.41,0-30.03,3.33-43.28,9.21-4.73-37-36.26-65.6-74.54-65.6-5.48,0-10.82.6-15.96,1.72.01-.58.08-1.15.08-1.74,0-41.56-33.68-75.24-75.23-75.24-5.6,0-11.02.66-16.28,1.81-20.54-75.77-89.57-131.55-171.85-131.55-38.76,0-74.51,12.5-103.75,33.49-7.01-65.59-62.48-116.67-129.94-116.67-38.07,0-72.23,16.38-96.13,42.34-10.65-119.19-110.63-212.62-232.59-212.62-56.09,0-107.53,19.79-147.81,52.73-55.29-77.44-145.84-127.98-248.27-127.98-147.25,0-270.09,104.32-298.68,243.1-20.89-6.02-42.89-9.41-65.71-9.41-79.03,0-148.8,38.72-191.96,98.07v519.72c.61,0,1.22.07,1.83.07,63.94,0,118.02-42.07,136.11-100.03,20.39,53.81,72.27,92.13,133.23,92.13,54.34,0,101.55-30.43,125.61-75.14,41.65,68.71,116.91,114.76,203.13,114.76,66.36,0,126.28-27.24,169.38-71.09,26.58,42.62,73.74,71.07,127.66,71.07,44.94,0,85.15-19.78,112.72-50.99,45.16,39.13,104.05,62.87,168.51,62.87,77.73,0,147.36-34.49,194.55-88.95,29.17,23.4,66.14,37.48,106.45,37.48,56.47,0,106.37-27.6,137.37-69.9,23.65,23.61,56.28,38.22,92.36,38.22,46.64,0,87.46-24.48,110.6-61.22,18.51,31.84,52.9,53.29,92.4,53.29,31.03,0,58.87-13.27,78.39-34.35,12.57,9.72,28.27,15.55,45.39,15.55,27.32,0,51.13-14.8,64.03-36.77,10.35,11.56,25.2,18.95,41.91,18.95,19.03,0,35.77-9.47,46-23.89,7.95,7.38,18.52,12.01,30.25,12.01,13.42,0,25.31-6.05,33.49-15.43,6.28,5.53,14.42,8.98,23.45,8.98,11.11,0,20.87-5.16,27.42-13.11,9.35,5.2,25.2,8.28,43.17,7.66,20.11-.69,37.19-5.87,45.36-12.8,38.27,4.27,68.48.57,70.01-9.32,1.69-11.04-32.95-25.51-77.43-32.37Z"/></svg>